<svg width="33" height="34" viewBox="0 0 33 34" fill="none" xmlns="http://www.w3.org/2000/svg">
<path fill-rule="evenodd" clip-rule="evenodd" d="M1.1 6C0.492487 6 0 6.48216 0 7.07692V32.9231C0 33.5178 0.492488 34 1.1 34H31.9C32.5075 34 33 33.5178 33 32.9231V7.07692C33 6.48215 32.5075 6 31.9 6H1.1ZM7.48125 10.9974C7.48125 11.2748 7.45604 11.5349 7.40561 11.7776C7.35518 12.0204 7.28039 12.2328 7.18122 12.4148C7.08205 12.5951 6.9585 12.7382 6.81059 12.844C6.66436 12.948 6.49543 13 6.30381 13C6.10883 13 5.93739 12.948 5.78947 12.844C5.64324 12.7382 5.52054 12.5951 5.42137 12.4148C5.32388 12.2328 5.24992 12.0204 5.1995 11.7776C5.15075 11.5349 5.12638 11.2748 5.12638 10.9974C5.12638 10.7217 5.14991 10.4625 5.19697 10.2198C5.24572 9.97703 5.31884 9.7655 5.41633 9.58518C5.51381 9.40485 5.63652 9.26268 5.78443 9.15865C5.93235 9.05288 6.10547 9 6.30381 9C6.50888 9 6.68537 9.05288 6.83328 9.15865C6.98288 9.26268 7.10558 9.40485 7.20139 9.58518C7.29719 9.7655 7.36779 9.97703 7.41317 10.2198C7.45856 10.4625 7.48125 10.7217 7.48125 10.9974ZM6.82067 10.9974C6.82067 10.7824 6.81227 10.5804 6.79546 10.3914C6.77865 10.2007 6.75008 10.0351 6.70974 9.89467C6.67108 9.75249 6.61813 9.64066 6.5509 9.55917C6.48534 9.47768 6.40298 9.43693 6.30381 9.43693C6.208 9.43693 6.12732 9.47768 6.06177 9.55917C5.99622 9.64066 5.94327 9.75249 5.90293 9.89467C5.86259 10.0351 5.83318 10.2007 5.81469 10.3914C5.7962 10.5804 5.78695 10.7824 5.78695 10.9974C5.78695 11.2141 5.7962 11.4179 5.81469 11.6086C5.83318 11.7976 5.86259 11.9632 5.90293 12.1053C5.94495 12.2458 5.99874 12.3576 6.06429 12.4408C6.12985 12.5223 6.20969 12.5631 6.30381 12.5631C6.39626 12.5631 6.47526 12.5223 6.54081 12.4408C6.60637 12.3576 6.66015 12.2458 6.70217 12.1053C6.7442 11.9632 6.77445 11.7976 6.79294 11.6086C6.81143 11.4179 6.82067 11.2141 6.82067 10.9974ZM4.83643 12.9272L4.14308 12.9792C4.15821 12.7503 4.16998 12.5405 4.17838 12.3498C4.18847 12.1591 4.19519 11.9935 4.19855 11.8531C4.20359 11.6901 4.20611 11.5418 4.20611 11.4083C4.20611 11.3459 4.20527 11.2757 4.20359 11.1977C4.20191 11.1318 4.19939 11.0529 4.19603 10.961C4.19435 10.8691 4.19099 10.7677 4.18594 10.6567C4.14224 10.8665 4.10358 11.0477 4.06997 11.2003C4.03803 11.3511 4.01198 11.4759 3.99181 11.5748C3.96659 11.6909 3.94642 11.788 3.9313 11.8661C3.90776 11.9718 3.88675 12.0776 3.86826 12.1834C3.85145 12.2735 3.83549 12.3697 3.82036 12.472C3.80523 12.5743 3.79431 12.6671 3.78758 12.7503L3.14214 12.7451C3.10684 12.5197 3.0707 12.3039 3.03372 12.0975C2.99842 11.8895 2.96145 11.6892 2.92279 11.4967C2.88581 11.3026 2.84715 11.1144 2.80681 10.9324C2.76815 10.7486 2.72697 10.5665 2.68326 10.3862C2.67486 10.5596 2.66898 10.7165 2.66562 10.857C2.66225 10.9974 2.66057 11.1188 2.66057 11.2211C2.66057 11.5158 2.66814 11.795 2.68326 12.0585C2.69839 12.3221 2.71856 12.583 2.74378 12.8414L2 12.8622C2.01177 12.7373 2.02185 12.6029 2.03026 12.459C2.03866 12.3134 2.04538 12.1669 2.05043 12.0195C2.05715 11.8704 2.06219 11.7248 2.06555 11.5826C2.06891 11.4387 2.07144 11.3043 2.07312 11.1795C2.0748 11.0546 2.07564 10.9436 2.07564 10.8466C2.07732 10.7495 2.07816 10.674 2.07816 10.6203C2.07816 10.5232 2.07732 10.4122 2.07564 10.2874C2.07564 10.1625 2.07396 10.0351 2.0706 9.90507C2.06891 9.7733 2.06639 9.64499 2.06303 9.52016C2.05967 9.39358 2.05463 9.28088 2.0479 9.18205C2.12858 9.18552 2.20506 9.18812 2.27734 9.18986C2.34962 9.19159 2.41769 9.19246 2.48156 9.19246C2.64461 9.19246 2.77151 9.18986 2.86228 9.18466C2.91606 9.18292 2.96313 9.18032 3.00347 9.17685C3.027 9.39705 3.05221 9.61205 3.0791 9.82185C3.10768 10.0299 3.13878 10.2345 3.17239 10.4356C3.20601 10.6368 3.24215 10.8362 3.28081 11.0338C3.32115 11.2297 3.36401 11.4257 3.40939 11.6216C3.4699 11.4014 3.52789 11.1855 3.58336 10.974C3.63883 10.7625 3.68925 10.5535 3.73464 10.3472C3.78002 10.1409 3.81952 9.93628 3.85314 9.73342C3.88675 9.53056 3.91281 9.32857 3.9313 9.12744C3.99349 9.13091 4.05148 9.13351 4.10526 9.13524C4.15905 9.13697 4.20948 9.13784 4.25654 9.13784C4.35235 9.13784 4.43303 9.13611 4.49858 9.13264C4.56582 9.12917 4.62128 9.12484 4.66499 9.11964C4.71541 9.11443 4.75659 9.10837 4.78853 9.10143C4.77508 9.28348 4.76416 9.46381 4.75575 9.64239C4.74735 9.82098 4.74062 9.9909 4.73558 10.1521C4.73222 10.3134 4.7297 10.4616 4.72802 10.5969V10.935V11.1118C4.7297 11.1916 4.73222 11.2861 4.73558 11.3953C4.73894 11.5028 4.74314 11.6207 4.74819 11.749C4.75323 11.8773 4.75911 12.0091 4.76584 12.1443C4.77424 12.2796 4.78433 12.414 4.79609 12.5475C4.80786 12.681 4.8213 12.8075 4.83643 12.9272ZM9.97731 9.48375C9.98403 9.33117 9.9916 9.18466 10 9.04421L9.32934 9.06502C9.33606 9.12744 9.34195 9.19419 9.34699 9.26528C9.35371 9.33637 9.35876 9.40919 9.36212 9.48375C9.36716 9.55657 9.37136 9.62939 9.37472 9.70221C9.37809 9.77503 9.38061 9.84525 9.38229 9.91287C9.38733 10.0707 9.39069 10.2284 9.39237 10.3862V10.5943C9.39237 10.6931 9.39069 10.8093 9.38733 10.9428C9.38565 11.0763 9.38229 11.2202 9.37724 11.3745C9.37388 11.5271 9.368 11.6771 9.3596 11.8244C9.31589 11.6857 9.26967 11.5306 9.22093 11.3589C9.17218 11.1855 9.12344 11.0078 9.07469 10.8257C9.02763 10.642 8.98141 10.4599 8.93602 10.2796C8.89064 10.0993 8.84946 9.93195 8.81248 9.77763C8.77718 9.62159 8.74609 9.48461 8.71919 9.36671C8.69398 9.24881 8.67717 9.16212 8.66877 9.10663C8.62675 9.11183 8.56708 9.11704 8.48976 9.12224C8.4242 9.1257 8.33596 9.12917 8.22502 9.13264C8.11409 9.13611 7.9729 9.13784 7.80145 9.13784C7.81322 9.28348 7.82246 9.43086 7.82918 9.57997C7.83591 9.72909 7.84095 9.873 7.84431 10.0117C7.84767 10.1487 7.84935 10.277 7.84935 10.3966C7.85103 10.5163 7.85187 10.6194 7.85187 10.7061V10.8075C7.85356 10.8405 7.8544 10.8847 7.8544 10.9402C7.8544 10.9939 7.85356 11.065 7.85187 11.1534C7.85187 11.2419 7.85019 11.3598 7.84683 11.5072C7.84515 11.6528 7.84179 11.834 7.83675 12.0507C7.83171 12.2674 7.82498 12.531 7.81658 12.8414H7.94012C7.98886 12.8414 8.05442 12.8422 8.13678 12.844C8.22082 12.844 8.32756 12.8466 8.45698 12.8518C8.43849 12.7044 8.4242 12.5596 8.41412 12.4174C8.40571 12.2752 8.39983 12.1487 8.39647 12.0377C8.39143 11.9077 8.38891 11.7846 8.38891 11.6684C8.38891 11.5332 8.39143 11.384 8.39647 11.2211C8.39983 11.0806 8.40487 10.9168 8.4116 10.7295C8.41832 10.5405 8.42841 10.3351 8.44185 10.1131C8.47211 10.2102 8.50488 10.3203 8.54018 10.4434C8.57716 10.5648 8.61414 10.694 8.65112 10.8309C8.68978 10.9662 8.72844 11.1058 8.7671 11.2497C8.80576 11.3919 8.84274 11.5323 8.87803 11.671C8.91501 11.8097 8.94947 11.9432 8.98141 12.0715C9.01334 12.1998 9.04108 12.3169 9.06461 12.4226C9.08982 12.5284 9.10999 12.6203 9.12512 12.6983C9.14193 12.7746 9.15285 12.8309 9.15789 12.8674C9.17975 12.8639 9.21084 12.8604 9.25118 12.857C9.2848 12.8535 9.33018 12.8509 9.38733 12.8492C9.44448 12.8474 9.51676 12.8466 9.60416 12.8466H9.76552C9.82603 12.8466 9.89243 12.8483 9.9647 12.8518C9.95966 12.7408 9.95546 12.6229 9.9521 12.498L9.94705 12.1209C9.94537 11.9961 9.94453 11.8747 9.94453 11.7568V11.4343V11.1612C9.94453 11.0537 9.94537 10.935 9.94705 10.8049C9.94873 10.6749 9.95041 10.5362 9.9521 10.3888L9.96218 9.93888L9.97731 9.48375ZM27.6663 12.8679C27.8066 12.8697 27.9579 12.8723 28.1202 12.8759C28.1042 12.758 28.0942 12.6578 28.0902 12.5751C28.0862 12.4924 28.0842 12.4264 28.0842 12.3772V12.3271C28.0842 12.313 28.0852 12.3016 28.0872 12.2928C28.0872 12.2822 28.0882 12.2725 28.0902 12.2637C28.0902 12.2673 28.0611 12.2752 28.003 12.2875C27.9449 12.2998 27.8607 12.3139 27.7505 12.3297C27.6403 12.3438 27.505 12.3578 27.3447 12.3719C27.1844 12.386 27.002 12.3948 26.7976 12.3983C26.7936 12.3473 26.7896 12.2831 26.7856 12.2057C26.7836 12.1283 26.7806 12.0351 26.7766 11.926C26.7745 11.817 26.7725 11.6912 26.7705 11.5487C26.7685 11.4045 26.7675 11.2409 26.7675 11.058C26.8537 11.058 26.975 11.0615 27.1313 11.0685C27.2876 11.0738 27.4739 11.0888 27.6904 11.1134C27.6784 11.0237 27.6703 10.9401 27.6663 10.8627C27.6623 10.7836 27.6603 10.7159 27.6603 10.6596V10.5936C27.6603 10.5743 27.6613 10.5576 27.6633 10.5435C27.6633 10.5277 27.6643 10.5136 27.6663 10.5013C27.5962 10.5118 27.516 10.5215 27.4259 10.5303C27.3477 10.5391 27.2535 10.547 27.1433 10.554C27.0331 10.5593 26.9078 10.5637 26.7675 10.5672C26.7675 10.4142 26.7685 10.2524 26.7705 10.0818C26.7725 9.90938 26.7756 9.72557 26.7796 9.53033C26.8136 9.52681 26.8497 9.52505 26.8878 9.52505H27.0261C27.1503 9.52505 27.2996 9.52857 27.4739 9.5356C27.6483 9.54088 27.8517 9.55319 28.0842 9.57254C28.0741 9.50218 28.0661 9.4327 28.0601 9.3641C28.0561 9.2955 28.0531 9.23394 28.0511 9.17941C28.0491 9.12489 28.0481 9.08091 28.0481 9.04749V9C27.994 9.00528 27.9259 9.00967 27.8437 9.01319C27.7735 9.01671 27.6834 9.02023 27.5731 9.02375C27.4629 9.0255 27.3317 9.02638 27.1794 9.02638C27.0251 9.02638 26.8487 9.02463 26.6503 9.02111C26.4539 9.01583 26.2305 9.00879 25.98 9C25.994 9.10378 26.006 9.21107 26.016 9.32189C26.0281 9.43094 26.0381 9.54 26.0461 9.64906C26.0541 9.75811 26.0611 9.86541 26.0671 9.97094C26.0731 10.0747 26.0782 10.1741 26.0822 10.2691C26.0902 10.4907 26.0952 10.7071 26.0972 10.9181C26.0952 11.1204 26.0902 11.3324 26.0822 11.554C26.0782 11.649 26.0731 11.7501 26.0671 11.8574C26.0611 11.9647 26.0541 12.0764 26.0461 12.1925C26.0381 12.3086 26.0281 12.4264 26.016 12.5461C26.006 12.6657 25.994 12.7844 25.98 12.9022C26.0501 12.897 26.1453 12.8917 26.2655 12.8864C26.3677 12.8829 26.5 12.8785 26.6623 12.8732C26.8267 12.8697 27.0301 12.8679 27.2725 12.8679H27.6663ZM25.484 9.72029C25.4699 9.48987 25.4539 9.27 25.4359 9.06068L24.5792 9.04221C24.5932 9.10554 24.6102 9.19964 24.6303 9.32453C24.6523 9.44765 24.6733 9.59717 24.6934 9.77306C24.7134 9.9472 24.7295 10.1468 24.7415 10.372C24.7555 10.5971 24.7625 10.8425 24.7625 11.1081C24.7625 11.2787 24.7595 11.4406 24.7535 11.5936C24.7475 11.7449 24.7335 11.8785 24.7114 11.9946C24.6914 12.109 24.6603 12.1995 24.6182 12.2664C24.5782 12.3332 24.524 12.3666 24.4559 12.3666C24.4118 12.3666 24.3707 12.3482 24.3327 12.3112C24.2966 12.2743 24.2635 12.2259 24.2335 12.1661C24.2054 12.1046 24.1794 12.0342 24.1553 11.955C24.1333 11.8741 24.1142 11.7906 24.0982 11.7044C24.0842 11.6182 24.0731 11.532 24.0651 11.4458C24.0591 11.3579 24.0561 11.2761 24.0561 11.2005V11.1345V11.029C24.0581 10.9815 24.0601 10.9181 24.0621 10.839C24.0661 10.7581 24.0721 10.6517 24.0802 10.5197L24.1102 10.0211C24.1222 9.82231 24.1373 9.58134 24.1553 9.29814L23.3918 9.27176C23.3998 9.61476 23.4058 9.90059 23.4098 10.1293C23.4138 10.3562 23.4158 10.5364 23.4158 10.6701C23.4158 10.737 23.4148 10.7941 23.4128 10.8416V10.9551C23.4108 10.9885 23.4098 11.0158 23.4098 11.0369C23.4098 11.102 23.4058 11.1793 23.3978 11.2691C23.3898 11.3588 23.3778 11.452 23.3617 11.5487C23.3477 11.6437 23.3287 11.7387 23.3046 11.8337C23.2826 11.9269 23.2565 12.0113 23.2265 12.087C23.1984 12.1608 23.1653 12.2207 23.1273 12.2664C23.0912 12.3121 23.0521 12.335 23.01 12.335C22.9659 12.335 22.9289 12.3183 22.8988 12.2849C22.8707 12.2497 22.8467 12.2022 22.8267 12.1424C22.8086 12.0808 22.7946 12.0105 22.7846 11.9313C22.7745 11.8504 22.7665 11.7642 22.7605 11.6727C22.7565 11.5795 22.7535 11.4836 22.7515 11.3851V11.0923C22.7515 10.9656 22.7545 10.839 22.7605 10.7123C22.7665 10.5839 22.7735 10.4599 22.7816 10.3403C22.7916 10.219 22.8026 10.1029 22.8146 9.99205C22.8267 9.88124 22.8387 9.77746 22.8507 9.68072C22.8808 9.45557 22.9148 9.24098 22.9529 9.03694L22.0721 9.01583C22.0581 9.22163 22.0461 9.44062 22.0361 9.6728C22.0321 9.7713 22.0271 9.8786 22.021 9.99469C22.017 10.109 22.013 10.2286 22.009 10.3535L22.003 10.7414C22.001 10.8733 22 11.0061 22 11.1398C22 11.2875 22.002 11.4353 22.006 11.583C22.012 11.7308 22.024 11.8724 22.0421 12.0078C22.0621 12.1415 22.0892 12.2664 22.1232 12.3825C22.1573 12.4968 22.2034 12.5971 22.2615 12.6833C22.3216 12.7677 22.3938 12.8336 22.478 12.8811C22.5641 12.9304 22.6673 12.955 22.7876 12.955C22.7936 12.955 22.8136 12.9541 22.8477 12.9524C22.8818 12.9506 22.9238 12.9453 22.9739 12.9365C23.024 12.9278 23.0802 12.9128 23.1423 12.8917C23.2064 12.8706 23.2695 12.8407 23.3317 12.802C23.3938 12.7615 23.4539 12.7114 23.512 12.6516C23.5701 12.5918 23.6202 12.517 23.6623 12.4273C23.6984 12.5223 23.7435 12.6032 23.7976 12.6701C23.8517 12.7351 23.9088 12.7888 23.9689 12.831C24.0291 12.8732 24.0882 12.9058 24.1463 12.9286C24.2064 12.9515 24.2605 12.9682 24.3086 12.9788C24.3567 12.9893 24.3958 12.9955 24.4259 12.9972C24.4579 12.999 24.476 12.9999 24.48 12.9999C24.6764 12.9999 24.8417 12.9497 24.976 12.8495C25.1102 12.7492 25.2184 12.6138 25.3006 12.4432C25.3828 12.2725 25.4419 12.0755 25.478 11.8521C25.514 11.6288 25.5321 11.3931 25.5321 11.145C25.5321 11.0184 25.5301 10.8918 25.5261 10.7651C25.524 10.6367 25.521 10.5118 25.517 10.3905C25.513 10.2673 25.508 10.1495 25.502 10.0369C25.496 9.92433 25.49 9.81879 25.484 9.72029ZM31 11.0052C31 11.2919 30.9689 11.5399 30.9068 11.7492C30.8467 11.9568 30.7685 12.1345 30.6723 12.2822C30.5762 12.4282 30.4679 12.5469 30.3477 12.6384C30.2275 12.7299 30.1072 12.8002 29.987 12.8495C29.8667 12.9005 29.7535 12.9348 29.6473 12.9524C29.5411 12.9717 29.4539 12.9814 29.3858 12.9814C29.3697 12.9814 29.3337 12.9805 29.2776 12.9788C29.2234 12.977 29.1563 12.9726 29.0762 12.9656C28.996 12.9603 28.9048 12.9515 28.8026 12.9392C28.7024 12.9269 28.5972 12.9093 28.487 12.8864C28.489 12.5381 28.491 12.2365 28.493 11.9814C28.497 11.7246 28.5 11.5039 28.502 11.3192C28.504 11.1345 28.506 10.9797 28.508 10.8548C28.51 10.7299 28.511 10.6226 28.511 10.5329C28.513 10.4432 28.514 10.3667 28.514 10.3034C28.516 10.2383 28.517 10.175 28.517 10.1134C28.517 10.0167 28.516 9.9173 28.514 9.81528C28.512 9.7115 28.508 9.61124 28.502 9.51449C28.496 9.41775 28.488 9.32717 28.478 9.24274C28.4679 9.15831 28.4549 9.08619 28.4389 9.02638C28.5952 9.01759 28.7375 9.01231 28.8657 9.01055C28.996 9.00704 29.1082 9.00528 29.2024 9.00528C29.4389 9.00528 29.6473 9.03078 29.8277 9.08179C30.008 9.13104 30.1643 9.20052 30.2966 9.29023C30.4309 9.37818 30.5421 9.48459 30.6303 9.60948C30.7204 9.73261 30.7926 9.86805 30.8467 10.0158C30.9028 10.1635 30.9419 10.3219 30.9639 10.4907C30.988 10.6578 31 10.8293 31 11.0052ZM30.2184 10.9234C30.2184 10.6121 30.2014 10.3588 30.1673 10.1635C30.1353 9.96655 30.0822 9.81352 30.008 9.70446C29.9359 9.59541 29.8407 9.52153 29.7224 9.48283C29.6062 9.44238 29.4649 9.42215 29.2986 9.42215H29.2084L29.2445 12.5223C29.2846 12.5364 29.3216 12.5461 29.3557 12.5513C29.3918 12.5549 29.4269 12.5566 29.4609 12.5566C29.5952 12.5566 29.7094 12.5293 29.8036 12.4748C29.8998 12.4185 29.978 12.3271 30.0381 12.2004C30.1002 12.072 30.1453 11.904 30.1733 11.6965C30.2034 11.4872 30.2184 11.2295 30.2184 10.9234ZM18.6361 12.8579C18.7486 12.8597 18.8699 12.8623 19 12.8658C18.9871 12.7483 18.9791 12.6483 18.9759 12.5658C18.9727 12.4834 18.9711 12.4176 18.9711 12.3684V12.3184C18.9711 12.3044 18.9719 12.293 18.9735 12.2842C18.9735 12.2737 18.9743 12.2641 18.9759 12.2553C18.9759 12.2588 18.9526 12.2667 18.906 12.279C18.8594 12.2913 18.792 12.3053 18.7036 12.3211C18.6153 12.3351 18.5068 12.3491 18.3783 12.3632C18.2498 12.3772 18.1036 12.386 17.9398 12.3895C17.9365 12.3386 17.9333 12.2746 17.9301 12.1974C17.9285 12.1202 17.9261 12.0272 17.9229 11.9185C17.9213 11.8097 17.9197 11.6843 17.9181 11.5422C17.9165 11.3983 17.9157 11.2351 17.9157 11.0527C17.9847 11.0527 18.0819 11.0562 18.2072 11.0632C18.3325 11.0685 18.4819 11.0834 18.6554 11.108C18.6458 11.0185 18.6394 10.9352 18.6361 10.858C18.6329 10.779 18.6313 10.7115 18.6313 10.6553V10.5896C18.6313 10.5703 18.6321 10.5536 18.6337 10.5396C18.6337 10.5238 18.6345 10.5097 18.6361 10.4975C18.5799 10.508 18.5157 10.5176 18.4434 10.5264C18.3807 10.5352 18.3052 10.5431 18.2169 10.5501C18.1285 10.5553 18.0281 10.5597 17.9157 10.5632C17.9157 10.4106 17.9165 10.2492 17.9181 10.079C17.9197 9.90712 17.9221 9.72379 17.9253 9.52906C17.9526 9.52555 17.9815 9.5238 18.012 9.5238H18.1229C18.2225 9.5238 18.3422 9.52731 18.4819 9.53432C18.6217 9.53959 18.7847 9.55187 18.9711 9.57117C18.9631 9.50099 18.9566 9.4317 18.9518 9.36328C18.9486 9.29486 18.9462 9.23346 18.9446 9.17907C18.943 9.12469 18.9422 9.08083 18.9422 9.0475V9.00013C18.8988 9.00539 18.8442 9.00978 18.7783 9.01329C18.7221 9.0168 18.6498 9.02031 18.5614 9.02381C18.4731 9.02557 18.3679 9.02645 18.2458 9.02645C18.1221 9.02645 17.9807 9.02469 17.8217 9.02118C17.6643 9.01592 17.4851 9.0089 17.2843 9.00013C17.2956 9.10364 17.3052 9.21065 17.3133 9.32117C17.3229 9.42994 17.3309 9.53871 17.3373 9.64748C17.3438 9.75625 17.3494 9.86326 17.3542 9.96852C17.359 10.072 17.3631 10.1711 17.3663 10.2659C17.3727 10.4869 17.3767 10.7027 17.3783 10.9132C17.3767 11.115 17.3727 11.3264 17.3663 11.5474C17.3631 11.6421 17.359 11.743 17.3542 11.85C17.3494 11.9571 17.3438 12.0685 17.3373 12.1842C17.3309 12.3 17.3229 12.4176 17.3133 12.5369C17.3052 12.6562 17.2956 12.7746 17.2843 12.8921C17.3406 12.8868 17.4169 12.8816 17.5133 12.8763C17.5952 12.8728 17.7012 12.8684 17.8313 12.8632C17.9631 12.8597 18.1261 12.8579 18.3205 12.8579H18.6361ZM14.2482 12.8474H14.1807C14.0811 12.8474 13.9863 12.8526 13.8964 12.8632C13.808 12.8754 13.7133 12.8921 13.612 12.9132C13.6329 12.5272 13.649 12.1649 13.6602 11.8264C13.6715 11.486 13.6771 11.1562 13.6771 10.8369C13.6771 10.4282 13.6675 10.0247 13.6482 9.62643L13.041 9.67379C13.0394 9.61415 13.0378 9.55976 13.0361 9.51064C13.0345 9.45977 13.0321 9.41152 13.0289 9.36591C13.0257 9.31854 13.0217 9.27118 13.0169 9.22381C13.012 9.17469 13.0064 9.1203 13 9.06066H13.2916C13.4201 9.06066 13.5454 9.05978 13.6675 9.05802C13.7912 9.05627 13.9141 9.05364 14.0361 9.05013C14.1598 9.04662 14.2843 9.04224 14.4096 9.03697C14.5365 9.03171 14.6675 9.02469 14.8024 9.01592C14.7944 9.10539 14.7888 9.1817 14.7855 9.24486C14.7839 9.30626 14.7831 9.37029 14.7831 9.43696V9.57643L14.1904 9.59222C14.1855 9.76063 14.1823 9.92642 14.1807 10.0896V10.579C14.1807 10.9615 14.1863 11.3404 14.1976 11.7158C14.2088 12.0913 14.2257 12.4684 14.2482 12.8474ZM16.9325 11.0764C16.9325 11.2255 16.9277 11.3764 16.9181 11.529C16.91 11.6816 16.8932 11.829 16.8675 11.9711C16.8434 12.1132 16.808 12.2474 16.7614 12.3737C16.7165 12.4983 16.6578 12.607 16.5855 12.7C16.5133 12.793 16.4257 12.8658 16.3229 12.9184C16.2201 12.9728 16.098 13 15.9566 13C15.8217 13 15.7044 12.9763 15.6048 12.9289C15.5052 12.8833 15.4201 12.8211 15.3494 12.7421C15.2787 12.6614 15.2209 12.5667 15.1759 12.4579C15.1325 12.3474 15.098 12.2298 15.0723 12.1053C15.0466 11.979 15.0289 11.8474 15.0193 11.7106C15.0096 11.5737 15.0048 11.4378 15.0048 11.3027V11.2106C15.0064 11.1843 15.008 11.1562 15.0096 11.1264C15.0112 11.0948 15.0129 11.058 15.0145 11.0159C15.0177 10.972 15.0209 10.9167 15.0241 10.8501C15.0273 10.7817 15.0305 10.6983 15.0337 10.6001C15.0386 10.5001 15.0434 10.3782 15.0482 10.2343C15.0546 10.0904 15.0602 9.92115 15.0651 9.72642C15.0715 9.52994 15.0787 9.30188 15.0867 9.04224L15.8072 9.07118C15.7831 9.34135 15.7606 9.5738 15.7398 9.76853L15.6843 10.279C15.6683 10.4264 15.6538 10.5562 15.641 10.6685C15.6281 10.7808 15.6177 10.8895 15.6096 10.9948C15.6016 11.1001 15.5952 11.208 15.5904 11.3185C15.5871 11.429 15.5855 11.5562 15.5855 11.7C15.5855 11.9685 15.612 12.172 15.6651 12.3105C15.7181 12.4491 15.8072 12.5184 15.9325 12.5184C16.0691 12.5184 16.1735 12.4298 16.2458 12.2527C16.3197 12.0737 16.3566 11.793 16.3566 11.4106C16.3566 10.993 16.343 10.5904 16.3157 10.2027C16.2884 9.81326 16.2522 9.42906 16.2072 9.05013L16.8892 9.02645C16.8859 9.09487 16.8843 9.16241 16.8843 9.22907V9.42643C16.8843 9.61064 16.8867 9.78958 16.8916 9.96326C16.8964 10.1352 16.902 10.2939 16.9084 10.4396L16.9253 10.8211C16.9301 10.9316 16.9325 11.0167 16.9325 11.0764Z" fill="#626466"/>
<path fill-rule="evenodd" clip-rule="evenodd" d="M2.10714 7C1.49568 7 1 7.47756 1 8.06667V13.9333C1 14.5224 1.49568 15 2.10714 15H30.8929C31.5043 15 32 14.5224 32 13.9333V8.06667C32 7.47756 31.5043 7 30.8929 7H2.10714ZM7.48125 10.9974C7.48125 11.2748 7.45604 11.5349 7.40561 11.7776C7.35518 12.0204 7.28039 12.2328 7.18122 12.4148C7.08205 12.5951 6.9585 12.7382 6.81059 12.844C6.66436 12.948 6.49543 13 6.30381 13C6.10883 13 5.93739 12.948 5.78947 12.844C5.64324 12.7382 5.52054 12.5951 5.42137 12.4148C5.32388 12.2328 5.24992 12.0204 5.1995 11.7776C5.15075 11.5349 5.12638 11.2748 5.12638 10.9974C5.12638 10.7217 5.14991 10.4625 5.19697 10.2198C5.24572 9.97703 5.31884 9.7655 5.41633 9.58518C5.51381 9.40485 5.63652 9.26268 5.78443 9.15865C5.93235 9.05288 6.10547 9 6.30381 9C6.50888 9 6.68537 9.05288 6.83328 9.15865C6.98288 9.26268 7.10558 9.40485 7.20139 9.58518C7.29719 9.7655 7.36779 9.97703 7.41317 10.2198C7.45856 10.4625 7.48125 10.7217 7.48125 10.9974ZM6.82067 10.9974C6.82067 10.7824 6.81227 10.5804 6.79546 10.3914C6.77865 10.2007 6.75008 10.0351 6.70974 9.89467C6.67108 9.75249 6.61813 9.64066 6.5509 9.55917C6.48534 9.47768 6.40298 9.43693 6.30381 9.43693C6.208 9.43693 6.12732 9.47768 6.06177 9.55917C5.99622 9.64066 5.94327 9.75249 5.90293 9.89467C5.86259 10.0351 5.83318 10.2007 5.81469 10.3914C5.7962 10.5804 5.78695 10.7824 5.78695 10.9974C5.78695 11.2141 5.7962 11.4179 5.81469 11.6086C5.83318 11.7976 5.86259 11.9632 5.90293 12.1053C5.94495 12.2458 5.99874 12.3576 6.06429 12.4408C6.12985 12.5223 6.20969 12.5631 6.30381 12.5631C6.39626 12.5631 6.47526 12.5223 6.54081 12.4408C6.60637 12.3576 6.66015 12.2458 6.70217 12.1053C6.7442 11.9632 6.77445 11.7976 6.79294 11.6086C6.81143 11.4179 6.82067 11.2141 6.82067 10.9974ZM4.83643 12.9272L4.14308 12.9792C4.15821 12.7503 4.16998 12.5405 4.17838 12.3498C4.18847 12.1591 4.19519 11.9935 4.19855 11.8531C4.20359 11.6901 4.20611 11.5418 4.20611 11.4083C4.20611 11.3459 4.20527 11.2757 4.20359 11.1977C4.20191 11.1318 4.19939 11.0529 4.19603 10.961C4.19435 10.8691 4.19099 10.7677 4.18594 10.6567C4.14224 10.8665 4.10358 11.0477 4.06997 11.2003C4.03803 11.3511 4.01198 11.4759 3.99181 11.5748C3.96659 11.6909 3.94642 11.788 3.9313 11.8661C3.90776 11.9718 3.88675 12.0776 3.86826 12.1834C3.85145 12.2735 3.83549 12.3697 3.82036 12.472C3.80523 12.5743 3.79431 12.6671 3.78758 12.7503L3.14214 12.7451C3.10684 12.5197 3.0707 12.3039 3.03372 12.0975C2.99842 11.8895 2.96145 11.6892 2.92279 11.4967C2.88581 11.3026 2.84715 11.1144 2.80681 10.9324C2.76815 10.7486 2.72697 10.5665 2.68327 10.3862C2.67486 10.5596 2.66898 10.7165 2.66562 10.857C2.66225 10.9974 2.66057 11.1188 2.66057 11.2211C2.66057 11.5158 2.66814 11.795 2.68327 12.0585C2.69839 12.3221 2.71856 12.583 2.74378 12.8414L2 12.8622C2.01177 12.7373 2.02185 12.6029 2.03026 12.459C2.03866 12.3134 2.04538 12.1669 2.05043 12.0195C2.05715 11.8704 2.06219 11.7248 2.06555 11.5826C2.06891 11.4387 2.07144 11.3043 2.07312 11.1795C2.0748 11.0546 2.07564 10.9436 2.07564 10.8466C2.07732 10.7495 2.07816 10.674 2.07816 10.6203C2.07816 10.5232 2.07732 10.4122 2.07564 10.2874C2.07564 10.1625 2.07396 10.0351 2.0706 9.90507C2.06891 9.7733 2.06639 9.64499 2.06303 9.52016C2.05967 9.39358 2.05463 9.28088 2.0479 9.18205C2.12858 9.18552 2.20506 9.18812 2.27734 9.18986C2.34962 9.19159 2.41769 9.19246 2.48156 9.19246C2.64461 9.19246 2.77151 9.18986 2.86228 9.18466C2.91606 9.18292 2.96313 9.18032 3.00347 9.17685C3.027 9.39705 3.05221 9.61205 3.0791 9.82185C3.10768 10.0299 3.13878 10.2345 3.17239 10.4356C3.20601 10.6368 3.24215 10.8362 3.28081 11.0338C3.32115 11.2297 3.36401 11.4257 3.40939 11.6216C3.4699 11.4014 3.52789 11.1855 3.58336 10.974C3.63883 10.7625 3.68925 10.5535 3.73464 10.3472C3.78002 10.1409 3.81952 9.93628 3.85314 9.73342C3.88675 9.53056 3.91281 9.32857 3.9313 9.12744C3.99349 9.13091 4.05148 9.13351 4.10526 9.13524C4.15905 9.13697 4.20948 9.13784 4.25654 9.13784C4.35235 9.13784 4.43303 9.13611 4.49858 9.13264C4.56582 9.12917 4.62128 9.12484 4.66499 9.11964C4.71541 9.11443 4.75659 9.10837 4.78853 9.10143C4.77508 9.28348 4.76416 9.46381 4.75575 9.64239C4.74735 9.82098 4.74062 9.9909 4.73558 10.1521C4.73222 10.3134 4.7297 10.4616 4.72802 10.5969V10.935V11.1118C4.7297 11.1916 4.73222 11.2861 4.73558 11.3953C4.73894 11.5028 4.74315 11.6207 4.74819 11.749C4.75323 11.8773 4.75911 12.0091 4.76584 12.1443C4.77424 12.2796 4.78433 12.414 4.79609 12.5475C4.80786 12.681 4.8213 12.8075 4.83643 12.9272ZM9.97731 9.48375C9.98403 9.33117 9.9916 9.18466 10 9.04421L9.32934 9.06502C9.33606 9.12744 9.34195 9.19419 9.34699 9.26528C9.35371 9.33637 9.35876 9.40919 9.36212 9.48375C9.36716 9.55657 9.37136 9.62939 9.37472 9.70221C9.37809 9.77503 9.38061 9.84525 9.38229 9.91287C9.38733 10.0707 9.39069 10.2284 9.39237 10.3862V10.5943C9.39237 10.6931 9.39069 10.8093 9.38733 10.9428C9.38565 11.0763 9.38229 11.2202 9.37724 11.3745C9.37388 11.5271 9.368 11.6771 9.3596 11.8244C9.31589 11.6857 9.26967 11.5306 9.22093 11.3589C9.17218 11.1855 9.12344 11.0078 9.07469 10.8257C9.02763 10.642 8.98141 10.4599 8.93602 10.2796C8.89064 10.0993 8.84946 9.93195 8.81248 9.77763C8.77718 9.62159 8.74609 9.48461 8.71919 9.36671C8.69398 9.24881 8.67717 9.16212 8.66877 9.10663C8.62675 9.11183 8.56708 9.11704 8.48976 9.12224C8.4242 9.1257 8.33596 9.12917 8.22502 9.13264C8.11409 9.13611 7.9729 9.13784 7.80145 9.13784C7.81322 9.28348 7.82246 9.43086 7.82918 9.57997C7.83591 9.72909 7.84095 9.873 7.84431 10.0117C7.84767 10.1487 7.84935 10.277 7.84935 10.3966C7.85103 10.5163 7.85187 10.6194 7.85187 10.7061V10.8075C7.85356 10.8405 7.8544 10.8847 7.8544 10.9402C7.8544 10.9939 7.85356 11.065 7.85187 11.1534C7.85187 11.2419 7.85019 11.3598 7.84683 11.5072C7.84515 11.6528 7.84179 11.834 7.83675 12.0507C7.83171 12.2674 7.82498 12.531 7.81658 12.8414H7.94012C7.98886 12.8414 8.05442 12.8422 8.13678 12.844C8.22082 12.844 8.32756 12.8466 8.45698 12.8518C8.43849 12.7044 8.4242 12.5596 8.41412 12.4174C8.40571 12.2752 8.39983 12.1487 8.39647 12.0377C8.39143 11.9077 8.38891 11.7846 8.38891 11.6684C8.38891 11.5332 8.39143 11.384 8.39647 11.2211C8.39983 11.0806 8.40487 10.9168 8.4116 10.7295C8.41832 10.5405 8.42841 10.3351 8.44185 10.1131C8.47211 10.2102 8.50488 10.3203 8.54018 10.4434C8.57716 10.5648 8.61414 10.694 8.65112 10.8309C8.68978 10.9662 8.72844 11.1058 8.7671 11.2497C8.80576 11.3919 8.84274 11.5323 8.87803 11.671C8.91501 11.8097 8.94947 11.9432 8.98141 12.0715C9.01334 12.1998 9.04108 12.3169 9.06461 12.4226C9.08982 12.5284 9.10999 12.6203 9.12512 12.6983C9.14193 12.7746 9.15285 12.8309 9.15789 12.8674C9.17975 12.8639 9.21084 12.8604 9.25118 12.857C9.2848 12.8535 9.33018 12.8509 9.38733 12.8492C9.44448 12.8474 9.51676 12.8466 9.60416 12.8466H9.76552C9.82603 12.8466 9.89243 12.8483 9.9647 12.8518C9.95966 12.7408 9.95546 12.6229 9.9521 12.498L9.94705 12.1209C9.94537 11.9961 9.94453 11.8747 9.94453 11.7568V11.4343V11.1612C9.94453 11.0537 9.94537 10.935 9.94705 10.8049C9.94873 10.6749 9.95041 10.5362 9.9521 10.3888L9.96218 9.93888L9.97731 9.48375ZM19 12.8658C18.8699 12.8623 18.7486 12.8597 18.6361 12.8579H18.3205C18.1261 12.8579 17.9631 12.8597 17.8313 12.8632C17.7012 12.8684 17.5952 12.8728 17.5133 12.8763C17.4169 12.8816 17.3406 12.8868 17.2843 12.8921C17.2956 12.7746 17.3052 12.6562 17.3133 12.5369C17.3229 12.4176 17.3309 12.3 17.3373 12.1842C17.3438 12.0685 17.3494 11.9571 17.3542 11.85C17.359 11.743 17.3631 11.6421 17.3663 11.5474C17.3727 11.3264 17.3767 11.115 17.3783 10.9132C17.3767 10.7027 17.3727 10.4869 17.3663 10.2659C17.3631 10.1711 17.359 10.072 17.3542 9.96852C17.3494 9.86326 17.3438 9.75625 17.3373 9.64748C17.3309 9.53871 17.3229 9.42994 17.3133 9.32117C17.3052 9.21065 17.2956 9.10364 17.2843 9.00013C17.4851 9.0089 17.6643 9.01592 17.8217 9.02118C17.9807 9.02469 18.1221 9.02645 18.2458 9.02645C18.3679 9.02645 18.4731 9.02557 18.5614 9.02381C18.6498 9.02031 18.7221 9.0168 18.7783 9.01329C18.8442 9.00978 18.8988 9.00539 18.9422 9.00013V9.0475C18.9422 9.08083 18.943 9.12469 18.9446 9.17907C18.9462 9.23346 18.9486 9.29486 18.9518 9.36328C18.9566 9.4317 18.9631 9.50099 18.9711 9.57117C18.7847 9.55187 18.6217 9.53959 18.4819 9.53432C18.3422 9.52731 18.2225 9.5238 18.1229 9.5238H18.012C17.9815 9.5238 17.9526 9.52555 17.9253 9.52906C17.9221 9.72379 17.9197 9.90712 17.9181 10.079C17.9165 10.2492 17.9157 10.4106 17.9157 10.5632C18.0281 10.5597 18.1285 10.5553 18.2169 10.5501C18.3052 10.5431 18.3807 10.5352 18.4434 10.5264C18.5157 10.5176 18.5799 10.508 18.6361 10.4975C18.6345 10.5097 18.6337 10.5238 18.6337 10.5396C18.6321 10.5536 18.6313 10.5703 18.6313 10.5896V10.6553C18.6313 10.7115 18.6329 10.779 18.6361 10.858C18.6394 10.9352 18.6458 11.0185 18.6554 11.108C18.4819 11.0834 18.3325 11.0685 18.2072 11.0632C18.0819 11.0562 17.9847 11.0527 17.9157 11.0527C17.9157 11.2351 17.9165 11.3983 17.9181 11.5422C17.9197 11.6843 17.9213 11.8097 17.9229 11.9185C17.9261 12.0272 17.9285 12.1202 17.9301 12.1974C17.9333 12.2746 17.9365 12.3386 17.9398 12.3895C18.1036 12.386 18.2498 12.3772 18.3783 12.3632C18.5068 12.3491 18.6153 12.3351 18.7036 12.3211C18.792 12.3053 18.8594 12.2913 18.906 12.279C18.9526 12.2667 18.9759 12.2588 18.9759 12.2553C18.9743 12.2641 18.9735 12.2737 18.9735 12.2842C18.9719 12.293 18.9711 12.3044 18.9711 12.3184V12.3684C18.9711 12.4176 18.9727 12.4834 18.9759 12.5658C18.9791 12.6483 18.9871 12.7483 19 12.8658ZM14.1807 12.8474H14.2482C14.2257 12.4684 14.2088 12.0913 14.1976 11.7158C14.1863 11.3404 14.1807 10.9615 14.1807 10.579V10.0896C14.1823 9.92642 14.1855 9.76063 14.1904 9.59222L14.7831 9.57643V9.43696C14.7831 9.37029 14.7839 9.30626 14.7855 9.24486C14.7888 9.1817 14.7944 9.10539 14.8024 9.01592C14.6675 9.02469 14.5365 9.03171 14.4096 9.03697C14.2843 9.04224 14.1598 9.04662 14.0361 9.05013C13.9141 9.05364 13.7912 9.05627 13.6675 9.05802C13.5454 9.05978 13.4201 9.06066 13.2916 9.06066H13C13.0064 9.1203 13.012 9.17469 13.0169 9.22381C13.0217 9.27118 13.0257 9.31854 13.0289 9.36591C13.0321 9.41152 13.0345 9.45977 13.0361 9.51064C13.0378 9.55976 13.0394 9.61415 13.041 9.67379L13.6482 9.62643C13.6675 10.0247 13.6771 10.4282 13.6771 10.8369C13.6771 11.1562 13.6715 11.486 13.6602 11.8264C13.649 12.1649 13.6329 12.5272 13.612 12.9132C13.7133 12.8921 13.808 12.8754 13.8964 12.8632C13.9863 12.8526 14.0811 12.8474 14.1807 12.8474ZM16.9181 11.529C16.9277 11.3764 16.9325 11.2255 16.9325 11.0764C16.9325 11.0167 16.9301 10.9316 16.9253 10.8211L16.9084 10.4396C16.902 10.2939 16.8964 10.1352 16.8916 9.96326C16.8867 9.78958 16.8843 9.61064 16.8843 9.42643V9.22907C16.8843 9.16241 16.8859 9.09487 16.8892 9.02645L16.2072 9.05013C16.2522 9.42906 16.2884 9.81326 16.3157 10.2027C16.343 10.5904 16.3566 10.993 16.3566 11.4106C16.3566 11.793 16.3197 12.0737 16.2458 12.2527C16.1735 12.4298 16.0691 12.5184 15.9325 12.5184C15.8072 12.5184 15.7181 12.4491 15.6651 12.3105C15.612 12.172 15.5855 11.9685 15.5855 11.7C15.5855 11.5562 15.5871 11.429 15.5904 11.3185C15.5952 11.208 15.6016 11.1001 15.6096 10.9948C15.6177 10.8895 15.6281 10.7808 15.641 10.6685C15.6538 10.5562 15.6683 10.4264 15.6843 10.279L15.7398 9.76853C15.7606 9.5738 15.7831 9.34135 15.8072 9.07118L15.0867 9.04224C15.0787 9.30188 15.0715 9.52994 15.0651 9.72642C15.0602 9.92115 15.0546 10.0904 15.0482 10.2343C15.0434 10.3782 15.0386 10.5001 15.0337 10.6001C15.0305 10.6983 15.0273 10.7817 15.0241 10.8501C15.0209 10.9167 15.0177 10.972 15.0145 11.0159C15.0129 11.058 15.0112 11.0948 15.0096 11.1264C15.008 11.1562 15.0064 11.1843 15.0048 11.2106V11.3027C15.0048 11.4378 15.0096 11.5737 15.0193 11.7106C15.0289 11.8474 15.0466 11.979 15.0723 12.1053C15.098 12.2298 15.1325 12.3474 15.1759 12.4579C15.2209 12.5667 15.2787 12.6614 15.3494 12.7421C15.4201 12.8211 15.5052 12.8833 15.6048 12.9289C15.7044 12.9763 15.8217 13 15.9566 13C16.098 13 16.2201 12.9728 16.3229 12.9184C16.4257 12.8658 16.5133 12.793 16.5855 12.7C16.6578 12.607 16.7165 12.4983 16.7614 12.3737C16.808 12.2474 16.8434 12.1132 16.8675 11.9711C16.8932 11.829 16.91 11.6816 16.9181 11.529ZM28.1202 12.8759C27.9579 12.8723 27.8066 12.8697 27.6663 12.8679H27.2725C27.0301 12.8679 26.8267 12.8697 26.6623 12.8732C26.5 12.8785 26.3677 12.8829 26.2655 12.8864C26.1453 12.8917 26.0501 12.897 25.98 12.9022C25.994 12.7844 26.006 12.6657 26.016 12.5461C26.0281 12.4264 26.0381 12.3086 26.0461 12.1925C26.0541 12.0764 26.0611 11.9647 26.0671 11.8574C26.0731 11.7501 26.0782 11.649 26.0822 11.554C26.0902 11.3324 26.0952 11.1204 26.0972 10.9181C26.0952 10.7071 26.0902 10.4907 26.0822 10.2691C26.0782 10.1741 26.0731 10.0747 26.0671 9.97094C26.0611 9.86541 26.0541 9.75811 26.0461 9.64906C26.0381 9.54 26.0281 9.43094 26.016 9.32189C26.006 9.21107 25.994 9.10378 25.98 9C26.2305 9.00879 26.4539 9.01583 26.6503 9.02111C26.8487 9.02463 27.0251 9.02638 27.1794 9.02638C27.3317 9.02638 27.4629 9.0255 27.5731 9.02375C27.6834 9.02023 27.7735 9.01671 27.8437 9.01319C27.9259 9.00967 27.994 9.00528 28.0481 9V9.04749C28.0481 9.08091 28.0491 9.12489 28.0511 9.17941C28.0531 9.23394 28.0561 9.2955 28.0601 9.3641C28.0661 9.4327 28.0741 9.50218 28.0842 9.57254C27.8517 9.55319 27.6483 9.54088 27.4739 9.5356C27.2996 9.52857 27.1503 9.52505 27.0261 9.52505H26.8878C26.8497 9.52505 26.8136 9.52681 26.7796 9.53033C26.7756 9.72557 26.7725 9.90938 26.7705 10.0818C26.7685 10.2524 26.7675 10.4142 26.7675 10.5672C26.9078 10.5637 27.0331 10.5593 27.1433 10.554C27.2535 10.547 27.3477 10.5391 27.4259 10.5303C27.516 10.5215 27.5962 10.5118 27.6663 10.5013C27.6643 10.5136 27.6633 10.5277 27.6633 10.5435C27.6613 10.5576 27.6603 10.5743 27.6603 10.5936V10.6596C27.6603 10.7159 27.6623 10.7836 27.6663 10.8627C27.6703 10.9401 27.6784 11.0237 27.6904 11.1134C27.4739 11.0888 27.2876 11.0738 27.1313 11.0685C26.975 11.0615 26.8537 11.058 26.7675 11.058C26.7675 11.2409 26.7685 11.4045 26.7705 11.5487C26.7725 11.6912 26.7745 11.817 26.7766 11.926C26.7806 12.0351 26.7836 12.1283 26.7856 12.2057C26.7896 12.2831 26.7936 12.3473 26.7976 12.3983C27.002 12.3948 27.1844 12.386 27.3447 12.3719C27.505 12.3578 27.6403 12.3438 27.7505 12.3297C27.8607 12.3139 27.9449 12.2998 28.003 12.2875C28.0611 12.2752 28.0902 12.2673 28.0902 12.2637C28.0882 12.2725 28.0872 12.2822 28.0872 12.2928C28.0852 12.3016 28.0842 12.313 28.0842 12.3271V12.3772C28.0842 12.4264 28.0862 12.4924 28.0902 12.5751C28.0942 12.6578 28.1042 12.758 28.1202 12.8759ZM25.4359 9.06068C25.4539 9.27 25.4699 9.48987 25.484 9.72029C25.49 9.81879 25.496 9.92433 25.502 10.0369C25.508 10.1495 25.513 10.2673 25.517 10.3905C25.521 10.5118 25.524 10.6367 25.5261 10.7651C25.5301 10.8918 25.5321 11.0184 25.5321 11.145C25.5321 11.3931 25.514 11.6288 25.478 11.8521C25.4419 12.0755 25.3828 12.2725 25.3006 12.4432C25.2184 12.6138 25.1102 12.7492 24.976 12.8495C24.8417 12.9497 24.6764 12.9999 24.48 12.9999C24.476 12.9999 24.4579 12.999 24.4259 12.9972C24.3958 12.9955 24.3567 12.9893 24.3086 12.9788C24.2605 12.9682 24.2064 12.9515 24.1463 12.9286C24.0882 12.9058 24.0291 12.8732 23.9689 12.831C23.9088 12.7888 23.8517 12.7351 23.7976 12.6701C23.7435 12.6032 23.6984 12.5223 23.6623 12.4273C23.6202 12.517 23.5701 12.5918 23.512 12.6516C23.4539 12.7114 23.3938 12.7615 23.3317 12.802C23.2695 12.8407 23.2064 12.8706 23.1423 12.8917C23.0802 12.9128 23.024 12.9278 22.9739 12.9365C22.9238 12.9453 22.8818 12.9506 22.8477 12.9524C22.8136 12.9541 22.7936 12.955 22.7876 12.955C22.6673 12.955 22.5641 12.9304 22.478 12.8811C22.3938 12.8336 22.3216 12.7677 22.2615 12.6833C22.2034 12.5971 22.1573 12.4968 22.1232 12.3825C22.0892 12.2664 22.0621 12.1415 22.0421 12.0078C22.024 11.8724 22.012 11.7308 22.006 11.583C22.002 11.4353 22 11.2875 22 11.1398C22 11.0061 22.001 10.8733 22.003 10.7414L22.009 10.3535C22.013 10.2286 22.017 10.109 22.021 9.99469C22.0271 9.8786 22.0321 9.7713 22.0361 9.6728C22.0461 9.44062 22.0581 9.22163 22.0721 9.01583L22.9529 9.03694C22.9148 9.24098 22.8808 9.45557 22.8507 9.68072C22.8387 9.77746 22.8267 9.88124 22.8146 9.99205C22.8026 10.1029 22.7916 10.219 22.7816 10.3403C22.7735 10.4599 22.7665 10.5839 22.7605 10.7123C22.7545 10.839 22.7515 10.9656 22.7515 11.0923V11.3851C22.7535 11.4836 22.7565 11.5795 22.7605 11.6727C22.7665 11.7642 22.7745 11.8504 22.7846 11.9313C22.7946 12.0105 22.8086 12.0808 22.8267 12.1424C22.8467 12.2022 22.8707 12.2497 22.8988 12.2849C22.9289 12.3183 22.9659 12.335 23.01 12.335C23.0521 12.335 23.0912 12.3121 23.1273 12.2664C23.1653 12.2207 23.1984 12.1608 23.2265 12.087C23.2565 12.0113 23.2826 11.9269 23.3046 11.8337C23.3287 11.7387 23.3477 11.6437 23.3617 11.5487C23.3778 11.452 23.3898 11.3588 23.3978 11.2691C23.4058 11.1793 23.4098 11.102 23.4098 11.0369C23.4098 11.0158 23.4108 10.9885 23.4128 10.9551V10.8416C23.4148 10.7941 23.4158 10.737 23.4158 10.6701C23.4158 10.5364 23.4138 10.3562 23.4098 10.1293C23.4058 9.90059 23.3998 9.61476 23.3918 9.27176L24.1553 9.29814C24.1373 9.58134 24.1222 9.82231 24.1102 10.0211L24.0802 10.5197C24.0721 10.6517 24.0661 10.7581 24.0621 10.839C24.0601 10.9181 24.0581 10.9815 24.0561 11.029V11.1345V11.2005C24.0561 11.2761 24.0591 11.3579 24.0651 11.4458C24.0731 11.532 24.0842 11.6182 24.0982 11.7044C24.1142 11.7906 24.1333 11.8741 24.1553 11.955C24.1794 12.0342 24.2054 12.1046 24.2335 12.1661C24.2635 12.2259 24.2966 12.2743 24.3327 12.3112C24.3707 12.3482 24.4118 12.3666 24.4559 12.3666C24.524 12.3666 24.5782 12.3332 24.6182 12.2664C24.6603 12.1995 24.6914 12.109 24.7114 11.9946C24.7335 11.8785 24.7475 11.7449 24.7535 11.5936C24.7595 11.4406 24.7625 11.2787 24.7625 11.1081C24.7625 10.8425 24.7555 10.5971 24.7415 10.372C24.7295 10.1468 24.7134 9.9472 24.6934 9.77306C24.6733 9.59717 24.6523 9.44765 24.6303 9.32453C24.6102 9.19964 24.5932 9.10554 24.5792 9.04221L25.4359 9.06068ZM30.9068 11.7492C30.9689 11.5399 31 11.2919 31 11.0052C31 10.8293 30.988 10.6578 30.9639 10.4907C30.9419 10.3219 30.9028 10.1635 30.8467 10.0158C30.7926 9.86805 30.7204 9.73261 30.6303 9.60948C30.5421 9.48459 30.4309 9.37818 30.2966 9.29023C30.1643 9.20052 30.008 9.13104 29.8277 9.08179C29.6473 9.03078 29.4389 9.00528 29.2024 9.00528C29.1082 9.00528 28.996 9.00704 28.8657 9.01055C28.7375 9.01231 28.5952 9.01759 28.4389 9.02638C28.4549 9.08619 28.4679 9.15831 28.478 9.24274C28.488 9.32717 28.496 9.41775 28.502 9.51449C28.508 9.61124 28.512 9.7115 28.514 9.81528C28.516 9.9173 28.517 10.0167 28.517 10.1134C28.517 10.175 28.516 10.2383 28.514 10.3034C28.514 10.3667 28.513 10.4432 28.511 10.5329C28.511 10.6226 28.51 10.7299 28.508 10.8548C28.506 10.9797 28.504 11.1345 28.502 11.3192C28.5 11.5039 28.497 11.7246 28.493 11.9814C28.491 12.2365 28.489 12.5381 28.487 12.8864C28.5972 12.9093 28.7024 12.9269 28.8026 12.9392C28.9048 12.9515 28.996 12.9603 29.0762 12.9656C29.1563 12.9726 29.2234 12.977 29.2776 12.9788C29.3337 12.9805 29.3697 12.9814 29.3858 12.9814C29.4539 12.9814 29.5411 12.9717 29.6473 12.9524C29.7535 12.9348 29.8667 12.9005 29.987 12.8495C30.1072 12.8002 30.2275 12.7299 30.3477 12.6384C30.4679 12.5469 30.5762 12.4282 30.6723 12.2822C30.7685 12.1345 30.8467 11.9568 30.9068 11.7492ZM30.1673 10.1635C30.2014 10.3588 30.2184 10.6121 30.2184 10.9234C30.2184 11.2295 30.2034 11.4872 30.1733 11.6965C30.1453 11.904 30.1002 12.072 30.0381 12.2004C29.978 12.3271 29.8998 12.4185 29.8036 12.4748C29.7094 12.5293 29.5952 12.5566 29.4609 12.5566C29.4269 12.5566 29.3918 12.5549 29.3557 12.5513C29.3216 12.5461 29.2846 12.5364 29.2445 12.5223L29.2084 9.42215H29.2986C29.4649 9.42215 29.6062 9.44238 29.7224 9.48283C29.8407 9.52153 29.9359 9.59541 30.008 9.70446C30.0822 9.81352 30.1353 9.96655 30.1673 10.1635Z" fill="#121212"/>
<path fill-rule="evenodd" clip-rule="evenodd" d="M25 7C24.1874 5.60606 22.9507 3.976 21.6179 3C20.2851 3.976 19.4964 5.60606 19 7H25Z" fill="#96B2C7"/>
<path fill-rule="evenodd" clip-rule="evenodd" d="M19.8503 5.09185C20.2991 4.29395 20.8736 3.545 21.6179 3C22.3621 3.545 23.0764 4.29395 23.7036 5.09185C24.1996 5.72284 24.6411 6.38444 25 7H19C19.2192 6.38444 19.4954 5.72284 19.8503 5.09185Z" fill="#121212"/>
<path fill-rule="evenodd" clip-rule="evenodd" d="M18 7V6.22222C18.0267 6.13151 18.0551 6.03336 18.0853 5.92866C18.0943 5.89746 18.1035 5.86568 18.1129 5.83333C18.5615 4.28254 19.4117 1.45196 21.4286 0C23.4454 1.45196 25.2561 4.28254 25.8647 5.83333C25.92 5.97418 25.9653 6.10448 26 6.22222V7H18ZM24.6831 5.83333C24.4262 5.29422 24.035 4.60616 23.532 3.8781C22.9209 2.99358 22.1982 2.12817 21.448 1.46224C20.8499 2.06696 20.3791 2.85117 20.003 3.68893C19.6616 4.44948 19.4214 5.19783 19.233 5.83333H24.6831Z" fill="#626466"/>
<path fill-rule="evenodd" clip-rule="evenodd" d="M7 7C7.81264 5.60606 9.04931 3.976 10.3821 3C11.7149 3.976 12.5036 5.60606 13 7H7Z" fill="#121212"/>
<path fill-rule="evenodd" clip-rule="evenodd" d="M14 7V6.22222C13.9733 6.13151 13.9449 6.03336 13.9147 5.92866C13.9057 5.89746 13.8965 5.86568 13.8871 5.83333C13.4385 4.28254 12.5883 1.45196 10.5714 0C8.55461 1.45196 6.74388 4.28254 6.13532 5.83333C6.08005 5.97418 6.03469 6.10448 6 6.22222V7H14ZM7.31688 5.83333C7.57385 5.29422 7.965 4.60616 8.46799 3.8781C9.07907 2.99358 9.80179 2.12817 10.552 1.46224C11.1501 2.06696 11.6209 2.85117 11.997 3.68893C12.3384 4.44948 12.5786 5.19783 12.767 5.83333H7.31688Z" fill="#626466"/>
<path d="M1 17.1111C1 16.4975 1.49568 16 2.10714 16H30.8929C31.5043 16 32 16.4975 32 17.1111V19.8889C32 20.5025 31.5043 21 30.8929 21H2.10714C1.49568 21 1 20.5025 1 19.8889V17.1111Z" fill="#121212"/>
<path d="M1 23.1111C1 22.4975 1.49568 22 2.10714 22H30.8929C31.5043 22 32 22.4975 32 23.1111V25.8889C32 26.5025 31.5043 27 30.8929 27H2.10714C1.49568 27 1 26.5025 1 25.8889V23.1111Z" fill="#121212"/>
<path d="M1 29.1111C1 28.4974 1.49568 28 2.10714 28H30.8929C31.5043 28 32 28.4974 32 29.1111V31.8889C32 32.5025 31.5043 33 30.8929 33H2.10714C1.49568 33 1 32.5025 1 31.8889V29.1111Z" fill="#121212"/>
<path d="M11 6H12V33H11V6Z" fill="#626466"/>
<path d="M20 6H21V33H20V6Z" fill="#626466"/>
</svg>
