<svg width="37" height="33" viewBox="0 0 37 33" fill="none" xmlns="http://www.w3.org/2000/svg">
<path fill-rule="evenodd" clip-rule="evenodd" d="M8.31552 18.9498C8.54259 18.0357 8.48066 16.8598 8.01344 15.6633C7.54623 14.4668 6.79494 13.5601 6.0085 13.0417C5.21935 12.5216 4.48272 12.4367 3.91586 12.658C3.34899 12.8794 2.86481 13.441 2.63696 14.3583C2.40989 15.2724 2.47183 16.4483 2.93904 17.6448C3.40626 18.8413 4.15754 19.748 4.94399 20.2663C5.73314 20.7865 6.46976 20.8714 7.03663 20.65C7.6035 20.4287 8.08767 19.8671 8.31552 18.9498ZM7.42379 21.6415C9.37264 20.8805 10.0805 18.0306 9.00494 15.2761C7.92933 12.5216 5.47754 10.9055 3.52869 11.6665C1.57985 12.4275 0.871948 15.2774 1.94755 18.0319C3.02315 20.7865 5.47495 22.4025 7.42379 21.6415Z" fill="#121212"/>
<path fill-rule="evenodd" clip-rule="evenodd" d="M32.4473 20.3154C33.2166 19.692 33.9107 18.6664 34.2822 17.368C34.6538 16.0696 34.6074 14.832 34.2844 13.896C33.9601 12.9562 33.4018 12.4139 32.7886 12.2385C32.1754 12.063 31.4148 12.2278 30.6424 12.8537C29.8731 13.4772 29.1791 14.5028 28.8075 15.8012C28.4359 17.0996 28.4823 18.3372 28.8053 19.2732C29.1296 20.213 29.6879 20.7552 30.3011 20.9307C30.9143 21.1062 31.675 20.9414 32.4473 20.3154ZM30.0083 21.954C32.0852 22.5484 34.4569 20.6263 35.3056 17.6608C36.1542 14.6953 35.1584 11.8095 33.0815 11.2151C31.0045 10.6208 28.6328 12.5429 27.7842 15.5084C26.9355 18.4738 27.9313 21.3596 30.0083 21.954Z" fill="#121212"/>
<path fill-rule="evenodd" clip-rule="evenodd" d="M26.1081 11.94C26.9511 11.0838 27.6462 9.75984 27.9265 8.15994C28.2067 6.56003 28.0029 5.0786 27.5011 3.98689C26.9971 2.89034 26.2498 2.28243 25.4597 2.14404C24.6696 2.00566 23.7602 2.32341 22.9135 3.18338C22.0705 4.03955 21.3754 5.36354 21.0952 6.96344C20.815 8.56335 21.0187 10.0448 21.5205 11.1365C22.0246 12.233 22.7718 12.841 23.5619 12.9793C24.352 13.1177 25.2614 12.8 26.1081 11.94ZM23.3783 14.0278C25.8437 14.4596 28.3494 11.9147 28.9749 8.34357C29.6004 4.77245 28.1088 1.52742 25.6433 1.0956C23.1779 0.663781 20.6722 3.20869 20.0467 6.77981C19.4213 10.3509 20.9128 13.596 23.3783 14.0278Z" fill="#121212"/>
<path fill-rule="evenodd" clip-rule="evenodd" d="M15.6048 11.1482C16.1131 10.014 16.3084 8.48178 16.0034 6.83356C15.6984 5.18535 14.9677 3.82449 14.0873 2.94725C13.2031 2.06624 12.2549 1.74243 11.4309 1.8949C10.6069 2.04738 9.83745 2.68903 9.32704 3.82811C8.8188 4.96233 8.6235 6.49452 8.9285 8.14274C9.23349 9.79096 9.96414 11.1518 10.8446 12.0291C11.7288 12.9101 12.677 13.2339 13.5009 13.0814C14.3249 12.9289 15.0944 12.2873 15.6048 11.1482ZM13.6946 14.128C16.2263 13.6596 17.7286 10.307 17.05 6.63989C16.3714 2.97278 13.769 0.379785 11.2372 0.848268C8.70553 1.31675 7.20328 4.66931 7.88186 8.33642C8.56045 12.0035 11.1629 14.5965 13.6946 14.128Z" fill="#121212"/>
<path fill-rule="evenodd" clip-rule="evenodd" d="M18.2861 13.7085L18.3174 13.7097C20.7496 13.807 22.3801 14.4333 23.6424 15.6838C24.8461 16.8763 25.6677 18.597 26.5939 20.7574C26.6269 20.7837 26.6667 20.8157 26.7128 20.853C26.8558 20.969 27.0589 21.1367 27.3011 21.3454C27.7847 21.7621 28.4284 22.3455 29.0634 23.0091C29.6956 23.6699 30.3339 24.4252 30.795 25.1861C31.2455 25.9294 31.5821 26.7671 31.4704 27.5624C31.2731 28.9674 30.2767 30.2968 29.0362 31.2382C27.7909 32.1831 26.2009 32.8134 24.7 32.7182C23.3362 32.6317 21.9207 32.4304 20.7516 32.2533C20.5728 32.2262 20.4004 32.1998 20.2349 32.1744C19.8552 32.1162 19.5119 32.0636 19.212 32.0215C18.7722 31.9597 18.4667 31.9267 18.2962 31.9267C18.1248 31.9267 17.8077 31.96 17.3614 32.0217C16.9625 32.0768 16.489 32.1504 15.9733 32.2305C15.9254 32.2379 15.8771 32.2454 15.8284 32.253C14.6934 32.4292 13.3772 32.6308 12.3001 32.7175C11.0973 32.8144 9.60772 32.3591 8.35511 31.4962C7.09357 30.6271 6.0056 29.2983 5.69493 27.5832L5.69451 27.5809C5.51312 26.5533 6.05847 25.5401 6.87206 24.5028C7.61132 23.5603 8.67447 22.4756 9.92943 21.1953C10.0641 21.0579 10.201 20.9183 10.3399 20.7763C11.6576 18.2268 12.763 16.5234 13.9749 15.4288C15.2283 14.2966 16.5638 13.8427 18.2548 13.7109L18.2861 13.7085ZM25.8324 21.5124L25.723 21.4278L25.6686 21.3005C24.7083 19.0534 23.9493 17.4862 22.8932 16.44C21.8774 15.4337 20.539 14.8687 18.3063 14.7746C16.8075 14.8955 15.7211 15.2858 14.6883 16.2187C13.618 17.1854 12.5758 18.7606 11.2493 21.3351L11.2126 21.4063L11.1567 21.4635C10.9997 21.624 10.8461 21.7808 10.696 21.9339C9.42761 23.2283 8.40991 24.2668 7.70957 25.1597C6.9113 26.1775 6.64844 26.8589 6.74251 27.3948C6.99079 28.7632 7.86806 29.8682 8.95895 30.6197C10.0591 31.3775 11.3096 31.7295 12.2146 31.6566C13.2454 31.5735 14.5214 31.3788 15.6651 31.2012C15.7143 31.1936 15.7632 31.186 15.8119 31.1784C16.3248 31.0987 16.8073 31.0237 17.2156 30.9673C17.6524 30.9069 18.0403 30.8623 18.2962 30.8623C18.5529 30.8623 18.931 30.9072 19.3601 30.9674C19.6669 31.0106 20.0208 31.0648 20.4041 31.1235C20.5682 31.1487 20.7376 31.1746 20.911 31.2009C22.0776 31.3776 23.4536 31.5726 24.7674 31.6559C25.9441 31.7306 27.288 31.2286 28.3928 30.3903C29.5022 29.5484 30.2718 28.4437 30.4164 27.4144C30.4756 26.9925 30.2995 26.422 29.8847 25.7377C29.4806 25.0709 28.9012 24.3792 28.2943 23.745C27.6902 23.1136 27.0735 22.5542 26.6064 22.1518C26.3733 21.951 26.1784 21.7901 26.0425 21.6798C25.9745 21.6248 25.9213 21.5824 25.8854 21.554C25.8675 21.5398 25.8539 21.5292 25.845 21.5222L25.8351 21.5145L25.8324 21.5124Z" fill="#121212"/>
</svg>
