<svg width="33" height="34" viewBox="0 0 33 34" fill="none" xmlns="http://www.w3.org/2000/svg">
<path fill-rule="evenodd" clip-rule="evenodd" d="M25 6.5C24.1874 5.10606 22.9507 3.976 21.6179 3C20.2851 3.976 19.4964 5.10606 19 6.5H25Z" fill="#CAD9E4"/>
<path fill-rule="evenodd" clip-rule="evenodd" d="M18 6.5V6.22222C18.0267 6.13151 18.0551 6.03336 18.0853 5.92866C18.0943 5.89746 18.1035 5.86567 18.1129 5.83333C18.5615 4.28254 19.4117 1.45196 21.4286 0C23.4454 1.45196 25.2561 4.28254 25.8647 5.83333C25.92 5.97418 25.9653 6.10448 26 6.22222V6.5H18ZM24.6831 5.83333C24.4262 5.29422 24.035 4.60616 23.532 3.8781C22.9209 2.99358 22.1982 2.12817 21.448 1.46224C20.8499 2.06696 20.3791 2.85117 20.003 3.68893C19.6616 4.44948 19.4214 5.19783 19.233 5.83333H24.6831Z" fill="#CAD9E4"/>
<path fill-rule="evenodd" clip-rule="evenodd" d="M7 6.5C7.81264 5.10606 9.04931 3.976 10.3821 3C11.7149 3.976 12.5036 5.10606 13 6.5H7Z" fill="#CAD9E4"/>
<path fill-rule="evenodd" clip-rule="evenodd" d="M14 6.5V6.22222C13.9733 6.13151 13.9449 6.03336 13.9147 5.92866C13.9057 5.89746 13.8965 5.86567 13.8871 5.83333C13.4385 4.28254 12.5883 1.45196 10.5714 0C8.55461 1.45196 6.74388 4.28254 6.13532 5.83333C6.08005 5.97418 6.03469 6.10448 6 6.22222V6.5H14ZM7.31688 5.83333C7.57385 5.29422 7.965 4.60616 8.46799 3.8781C9.07907 2.99358 9.80179 2.12817 10.552 1.46224C11.1501 2.06696 11.6209 2.85117 11.997 3.68893C12.3384 4.44948 12.5786 5.19783 12.767 5.83333H7.31688Z" fill="#CAD9E4"/>
<path fill-rule="evenodd" clip-rule="evenodd" d="M0 7.07692C0 6.48216 0.492487 6 1.1 6H31.9C32.5075 6 33 6.48215 33 7.07692V32.9231C33 33.5178 32.5075 34 31.9 34H1.1C0.492488 34 0 33.5178 0 32.9231V7.07692ZM1.1 7.88462C1.1 7.28985 1.59249 6.80769 2.2 6.80769H30.8C31.4075 6.80769 31.9 7.28985 31.9 7.88462V13.8077C31.9 14.4025 31.4075 14.8846 30.8 14.8846H2.2C1.59249 14.8846 1.1 14.4025 1.1 13.8077V7.88462ZM2.2 16.2308C1.59249 16.2308 1.1 16.7129 1.1 17.3077V20C1.1 20.5948 1.59249 21.0769 2.2 21.0769H30.8C31.4075 21.0769 31.9 20.5948 31.9 20V17.3077C31.9 16.7129 31.4075 16.2308 30.8 16.2308H2.2ZM1.1 22.9615C1.1 22.3668 1.59249 21.8846 2.2 21.8846H30.8C31.4075 21.8846 31.9 22.3668 31.9 22.9615V25.6538C31.9 26.2486 31.4075 26.7308 30.8 26.7308H2.2C1.59249 26.7308 1.1 26.2486 1.1 25.6538V22.9615ZM2.2 27.5385C1.59249 27.5385 1.1 28.0206 1.1 28.6154V31.3077C1.1 31.9025 1.59249 32.3846 2.2 32.3846H30.8C31.4075 32.3846 31.9 31.9025 31.9 31.3077V28.6154C31.9 28.0206 31.4075 27.5385 30.8 27.5385H2.2Z" fill="#CAD9E4"/>
<path d="M11 6H12V33H11V6Z" fill="#CAD9E4"/>
<path d="M20 6H21V33H20V6Z" fill="#CAD9E4"/>
<path d="M4.83643 12.9272L4.14308 12.9792C4.15821 12.7503 4.16998 12.5405 4.17838 12.3498C4.18847 12.1591 4.19519 11.9935 4.19855 11.8531C4.20359 11.6901 4.20611 11.5418 4.20611 11.4083C4.20611 11.3459 4.20527 11.2757 4.20359 11.1977C4.20191 11.1318 4.19939 11.0529 4.19603 10.961C4.19435 10.8691 4.19099 10.7677 4.18594 10.6567C4.14224 10.8665 4.10358 11.0477 4.06997 11.2003C4.03803 11.3511 4.01198 11.4759 3.99181 11.5748C3.96659 11.6909 3.94642 11.788 3.9313 11.8661C3.90776 11.9718 3.88675 12.0776 3.86826 12.1834C3.85145 12.2735 3.83549 12.3697 3.82036 12.472C3.80523 12.5743 3.79431 12.6671 3.78758 12.7503L3.14214 12.7451C3.10684 12.5197 3.0707 12.3039 3.03372 12.0975C2.99842 11.8895 2.96145 11.6892 2.92279 11.4967C2.88581 11.3026 2.84715 11.1144 2.80681 10.9324C2.76815 10.7486 2.72697 10.5665 2.68327 10.3862C2.67486 10.5596 2.66898 10.7165 2.66562 10.857C2.66225 10.9974 2.66057 11.1188 2.66057 11.2211C2.66057 11.5158 2.66814 11.795 2.68327 12.0585C2.69839 12.3221 2.71856 12.583 2.74378 12.8414L2 12.8622C2.01177 12.7373 2.02185 12.6029 2.03026 12.459C2.03866 12.3134 2.04538 12.1669 2.05043 12.0195C2.05715 11.8704 2.06219 11.7248 2.06555 11.5826C2.06891 11.4387 2.07144 11.3043 2.07312 11.1795C2.0748 11.0546 2.07564 10.9436 2.07564 10.8466C2.07732 10.7495 2.07816 10.674 2.07816 10.6203C2.07816 10.5232 2.07732 10.4122 2.07564 10.2874C2.07564 10.1625 2.07396 10.0351 2.0706 9.90507C2.06891 9.7733 2.06639 9.64499 2.06303 9.52016C2.05967 9.39358 2.05463 9.28088 2.0479 9.18205C2.12858 9.18552 2.20506 9.18812 2.27734 9.18986C2.34962 9.19159 2.41769 9.19246 2.48156 9.19246C2.64461 9.19246 2.77151 9.18986 2.86228 9.18466C2.91606 9.18292 2.96313 9.18032 3.00347 9.17685C3.027 9.39705 3.05221 9.61205 3.0791 9.82185C3.10768 10.0299 3.13878 10.2345 3.17239 10.4356C3.20601 10.6368 3.24215 10.8362 3.28081 11.0338C3.32115 11.2297 3.36401 11.4257 3.40939 11.6216C3.4699 11.4014 3.52789 11.1855 3.58336 10.974C3.63883 10.7625 3.68925 10.5535 3.73464 10.3472C3.78002 10.1409 3.81952 9.93628 3.85314 9.73342C3.88675 9.53056 3.91281 9.32857 3.9313 9.12744C3.99349 9.13091 4.05148 9.13351 4.10526 9.13524C4.15905 9.13697 4.20948 9.13784 4.25654 9.13784C4.35235 9.13784 4.43303 9.13611 4.49858 9.13264C4.56582 9.12917 4.62128 9.12484 4.66499 9.11964C4.71541 9.11443 4.75659 9.10837 4.78853 9.10143C4.77508 9.28349 4.76416 9.46381 4.75575 9.64239C4.74735 9.82098 4.74062 9.9909 4.73558 10.1521C4.73222 10.3134 4.7297 10.4616 4.72802 10.5969C4.72802 10.7304 4.72802 10.8431 4.72802 10.935C4.72802 10.9731 4.72802 11.0321 4.72802 11.1118C4.7297 11.1916 4.73222 11.2861 4.73558 11.3953C4.73894 11.5028 4.74315 11.6207 4.74819 11.749C4.75323 11.8773 4.75911 12.0091 4.76584 12.1443C4.77424 12.2796 4.78433 12.414 4.79609 12.5475C4.80786 12.681 4.8213 12.8075 4.83643 12.9272Z" fill="#CAD9E4"/>
<path d="M7.48125 10.9974C7.48125 11.2748 7.45604 11.5349 7.40561 11.7776C7.35518 12.0204 7.28039 12.2328 7.18122 12.4148C7.08205 12.5951 6.9585 12.7382 6.81059 12.844C6.66436 12.948 6.49543 13 6.30381 13C6.10883 13 5.93739 12.948 5.78947 12.844C5.64324 12.7382 5.52054 12.5951 5.42137 12.4148C5.32388 12.2328 5.24992 12.0204 5.1995 11.7776C5.15075 11.5349 5.12638 11.2748 5.12638 10.9974C5.12638 10.7217 5.14991 10.4625 5.19697 10.2198C5.24572 9.97703 5.31884 9.7655 5.41633 9.58518C5.51381 9.40485 5.63652 9.26268 5.78443 9.15865C5.93235 9.05288 6.10547 9 6.30381 9C6.50888 9 6.68537 9.05288 6.83328 9.15865C6.98288 9.26268 7.10558 9.40485 7.20139 9.58518C7.29719 9.7655 7.36779 9.97703 7.41317 10.2198C7.45856 10.4625 7.48125 10.7217 7.48125 10.9974ZM6.82067 10.9974C6.82067 10.7824 6.81227 10.5804 6.79546 10.3914C6.77865 10.2007 6.75008 10.0351 6.70974 9.89467C6.67108 9.75249 6.61813 9.64066 6.5509 9.55917C6.48534 9.47768 6.40298 9.43693 6.30381 9.43693C6.208 9.43693 6.12732 9.47768 6.06177 9.55917C5.99622 9.64066 5.94327 9.75249 5.90293 9.89467C5.86259 10.0351 5.83318 10.2007 5.81469 10.3914C5.7962 10.5804 5.78695 10.7824 5.78695 10.9974C5.78695 11.2141 5.7962 11.4179 5.81469 11.6086C5.83318 11.7976 5.86259 11.9632 5.90293 12.1053C5.94495 12.2458 5.99874 12.3576 6.06429 12.4408C6.12985 12.5223 6.20969 12.5631 6.30381 12.5631C6.39626 12.5631 6.47526 12.5223 6.54081 12.4408C6.60637 12.3576 6.66015 12.2458 6.70217 12.1053C6.7442 11.9632 6.77445 11.7976 6.79294 11.6086C6.81143 11.4179 6.82067 11.2141 6.82067 10.9974Z" fill="#CAD9E4"/>
<path d="M10 9.04421C9.9916 9.18466 9.98403 9.33117 9.97731 9.48375C9.97227 9.63459 9.96722 9.7863 9.96218 9.93888C9.95882 10.0915 9.95546 10.2414 9.9521 10.3888C9.95041 10.5362 9.94873 10.6749 9.94705 10.8049C9.94537 10.935 9.94453 11.0537 9.94453 11.1612C9.94453 11.2687 9.94453 11.3598 9.94453 11.4343C9.94453 11.5314 9.94453 11.6389 9.94453 11.7568C9.94453 11.8747 9.94537 11.9961 9.94705 12.1209C9.94873 12.2458 9.95041 12.3715 9.9521 12.498C9.95546 12.6229 9.95966 12.7408 9.9647 12.8518C9.89243 12.8483 9.82603 12.8466 9.76552 12.8466C9.70669 12.8466 9.6529 12.8466 9.60416 12.8466C9.51676 12.8466 9.44448 12.8474 9.38733 12.8492C9.33018 12.8509 9.2848 12.8535 9.25118 12.857C9.21084 12.8604 9.17975 12.8639 9.15789 12.8674C9.15285 12.8309 9.14193 12.7746 9.12512 12.6983C9.10999 12.6203 9.08982 12.5284 9.06461 12.4226C9.04108 12.3169 9.01334 12.1998 8.98141 12.0715C8.94947 11.9432 8.91501 11.8097 8.87803 11.671C8.84274 11.5323 8.80576 11.3919 8.7671 11.2497C8.72844 11.1058 8.68978 10.9662 8.65112 10.8309C8.61414 10.694 8.57716 10.5648 8.54018 10.4434C8.50488 10.3203 8.47211 10.2102 8.44185 10.1131C8.42841 10.3351 8.41832 10.5405 8.4116 10.7295C8.40487 10.9168 8.39983 11.0806 8.39647 11.2211C8.39143 11.384 8.38891 11.5332 8.38891 11.6684C8.38891 11.7846 8.39143 11.9077 8.39647 12.0377C8.39983 12.1487 8.40571 12.2752 8.41412 12.4174C8.4242 12.5596 8.43849 12.7044 8.45698 12.8518C8.32756 12.8466 8.22082 12.844 8.13678 12.844C8.05442 12.8422 7.98886 12.8414 7.94012 12.8414H7.81658C7.82498 12.531 7.83171 12.2674 7.83675 12.0507C7.84179 11.834 7.84515 11.6528 7.84683 11.5072C7.85019 11.3598 7.85187 11.2419 7.85187 11.1534C7.85356 11.065 7.8544 10.9939 7.8544 10.9402C7.8544 10.8847 7.85356 10.8405 7.85187 10.8075C7.85187 10.7746 7.85187 10.7408 7.85187 10.7061C7.85187 10.6194 7.85103 10.5163 7.84935 10.3966C7.84935 10.277 7.84767 10.1487 7.84431 10.0117C7.84095 9.873 7.83591 9.72909 7.82918 9.57997C7.82246 9.43086 7.81322 9.28349 7.80145 9.13784C7.9729 9.13784 8.11409 9.13611 8.22502 9.13264C8.33596 9.12917 8.4242 9.1257 8.48976 9.12224C8.56708 9.11704 8.62675 9.11183 8.66877 9.10663C8.67717 9.16212 8.69398 9.24881 8.71919 9.36671C8.74609 9.48461 8.77718 9.62159 8.81248 9.77763C8.84946 9.93195 8.89064 10.0993 8.93602 10.2796C8.98141 10.4599 9.02763 10.642 9.07469 10.8257C9.12344 11.0078 9.17218 11.1855 9.22093 11.3589C9.26967 11.5306 9.31589 11.6857 9.3596 11.8244C9.368 11.6771 9.37388 11.5271 9.37725 11.3745C9.38229 11.2202 9.38565 11.0763 9.38733 10.9428C9.39069 10.8093 9.39237 10.6931 9.39237 10.5943C9.39237 10.4937 9.39237 10.4244 9.39237 10.3862C9.39069 10.2284 9.38733 10.0707 9.38229 9.91287C9.38061 9.84525 9.37809 9.77503 9.37472 9.70221C9.37136 9.62939 9.36716 9.55657 9.36212 9.48375C9.35876 9.40919 9.35371 9.33637 9.34699 9.26528C9.34195 9.19419 9.33606 9.12744 9.32934 9.06502L10 9.04421Z" fill="#CAD9E4"/>
<path d="M14.2482 12.8474H14.1807C14.0811 12.8474 13.9863 12.8526 13.8964 12.8632C13.808 12.8754 13.7133 12.8921 13.612 12.9132C13.6329 12.5272 13.649 12.1649 13.6602 11.8264C13.6715 11.486 13.6771 11.1562 13.6771 10.8369C13.6771 10.4282 13.6675 10.0247 13.6482 9.62643L13.041 9.67379C13.0394 9.61415 13.0378 9.55976 13.0361 9.51064C13.0345 9.45977 13.0321 9.41152 13.0289 9.36591C13.0257 9.31854 13.0217 9.27118 13.0169 9.22381C13.012 9.17469 13.0064 9.1203 13 9.06066H13.2916C13.4201 9.06066 13.5454 9.05978 13.6675 9.05802C13.7912 9.05627 13.9141 9.05364 14.0361 9.05013C14.1598 9.04662 14.2843 9.04224 14.4096 9.03697C14.5365 9.03171 14.6675 9.02469 14.8024 9.01592C14.7944 9.10539 14.7888 9.1817 14.7855 9.24486C14.7839 9.30626 14.7831 9.37029 14.7831 9.43696V9.57643L14.1904 9.59222C14.1855 9.76063 14.1823 9.92642 14.1807 10.0896C14.1807 10.251 14.1807 10.4141 14.1807 10.579C14.1807 10.9615 14.1863 11.3404 14.1976 11.7158C14.2088 12.0913 14.2257 12.4684 14.2482 12.8474Z" fill="#CAD9E4"/>
<path d="M16.9325 11.0764C16.9325 11.2255 16.9277 11.3764 16.9181 11.529C16.91 11.6816 16.8932 11.829 16.8675 11.9711C16.8434 12.1132 16.808 12.2474 16.7614 12.3737C16.7165 12.4983 16.6578 12.607 16.5855 12.7C16.5133 12.793 16.4257 12.8658 16.3229 12.9184C16.2201 12.9728 16.098 13 15.9566 13C15.8217 13 15.7044 12.9763 15.6048 12.9289C15.5052 12.8833 15.4201 12.8211 15.3494 12.7421C15.2787 12.6614 15.2209 12.5667 15.1759 12.4579C15.1325 12.3474 15.098 12.2299 15.0723 12.1053C15.0466 11.979 15.0289 11.8474 15.0193 11.7106C15.0096 11.5737 15.0048 11.4378 15.0048 11.3027C15.0048 11.2676 15.0048 11.2369 15.0048 11.2106C15.0064 11.1843 15.008 11.1562 15.0096 11.1264C15.0112 11.0948 15.0129 11.058 15.0145 11.0159C15.0177 10.972 15.0209 10.9167 15.0241 10.8501C15.0273 10.7817 15.0305 10.6983 15.0337 10.6001C15.0386 10.5001 15.0434 10.3782 15.0482 10.2343C15.0546 10.0904 15.0602 9.92115 15.0651 9.72642C15.0715 9.52994 15.0787 9.30188 15.0867 9.04224L15.8072 9.07118C15.7831 9.34135 15.7606 9.5738 15.7398 9.76853C15.7189 9.9615 15.7004 10.1317 15.6843 10.279C15.6683 10.4264 15.6538 10.5562 15.641 10.6685C15.6281 10.7808 15.6177 10.8895 15.6096 10.9948C15.6016 11.1001 15.5952 11.208 15.5904 11.3185C15.5871 11.429 15.5855 11.5562 15.5855 11.7C15.5855 11.9685 15.612 12.172 15.6651 12.3105C15.7181 12.4491 15.8072 12.5184 15.9325 12.5184C16.0691 12.5184 16.1735 12.4298 16.2458 12.2527C16.3197 12.0737 16.3566 11.793 16.3566 11.4106C16.3566 10.993 16.343 10.5904 16.3157 10.2027C16.2884 9.81326 16.2522 9.42906 16.2072 9.05013L16.8892 9.02645C16.8859 9.09487 16.8843 9.16241 16.8843 9.22907C16.8843 9.29398 16.8843 9.35977 16.8843 9.42643C16.8843 9.61064 16.8867 9.78958 16.8916 9.96326C16.8964 10.1352 16.902 10.2939 16.9084 10.4396C16.9149 10.5834 16.9205 10.7106 16.9253 10.8211C16.9301 10.9316 16.9325 11.0167 16.9325 11.0764Z" fill="#CAD9E4"/>
<path d="M19 12.8658C18.8699 12.8623 18.7486 12.8597 18.6361 12.8579C18.5253 12.8579 18.4201 12.8579 18.3205 12.8579C18.1261 12.8579 17.9631 12.8597 17.8313 12.8632C17.7012 12.8684 17.5952 12.8728 17.5133 12.8763C17.4169 12.8816 17.3406 12.8868 17.2843 12.8921C17.2956 12.7746 17.3052 12.6562 17.3133 12.5369C17.3229 12.4176 17.3309 12.3 17.3373 12.1842C17.3438 12.0685 17.3494 11.9571 17.3542 11.85C17.359 11.743 17.3631 11.6421 17.3663 11.5474C17.3727 11.3264 17.3767 11.115 17.3783 10.9132C17.3767 10.7027 17.3727 10.4869 17.3663 10.2659C17.3631 10.1711 17.359 10.072 17.3542 9.96852C17.3494 9.86326 17.3438 9.75625 17.3373 9.64748C17.3309 9.53871 17.3229 9.42994 17.3133 9.32117C17.3052 9.21065 17.2956 9.10364 17.2843 9.00013C17.4851 9.0089 17.6643 9.01592 17.8217 9.02118C17.9807 9.02469 18.1221 9.02645 18.2458 9.02645C18.3679 9.02645 18.4731 9.02557 18.5614 9.02382C18.6498 9.02031 18.7221 9.0168 18.7783 9.01329C18.8442 9.00978 18.8988 9.00539 18.9422 9.00013C18.9422 8.99838 18.9422 9.01417 18.9422 9.0475C18.9422 9.08083 18.943 9.12469 18.9446 9.17907C18.9462 9.23346 18.9486 9.29486 18.9518 9.36328C18.9566 9.4317 18.9631 9.50099 18.9711 9.57117C18.7847 9.55187 18.6217 9.53959 18.4819 9.53432C18.3422 9.52731 18.2225 9.5238 18.1229 9.5238C18.0811 9.5238 18.0442 9.5238 18.012 9.5238C17.9815 9.5238 17.9526 9.52555 17.9253 9.52906C17.9221 9.72379 17.9197 9.90712 17.9181 10.079C17.9165 10.2492 17.9157 10.4106 17.9157 10.5632C18.0281 10.5597 18.1285 10.5553 18.2169 10.5501C18.3052 10.5431 18.3807 10.5352 18.4434 10.5264C18.5157 10.5176 18.5799 10.508 18.6361 10.4975C18.6345 10.5097 18.6337 10.5238 18.6337 10.5396C18.6321 10.5536 18.6313 10.5703 18.6313 10.5896C18.6313 10.6089 18.6313 10.6308 18.6313 10.6553C18.6313 10.7115 18.6329 10.779 18.6361 10.858C18.6394 10.9352 18.6458 11.0185 18.6554 11.108C18.4819 11.0834 18.3325 11.0685 18.2072 11.0632C18.0819 11.0562 17.9847 11.0527 17.9157 11.0527C17.9157 11.2351 17.9165 11.3983 17.9181 11.5422C17.9197 11.6843 17.9213 11.8097 17.9229 11.9185C17.9261 12.0272 17.9285 12.1202 17.9301 12.1974C17.9333 12.2746 17.9365 12.3386 17.9398 12.3895C18.1036 12.386 18.2498 12.3772 18.3783 12.3632C18.5068 12.3491 18.6153 12.3351 18.7036 12.3211C18.792 12.3053 18.8594 12.2913 18.906 12.279C18.9526 12.2667 18.9759 12.2588 18.9759 12.2553C18.9743 12.2641 18.9735 12.2737 18.9735 12.2842C18.9719 12.293 18.9711 12.3044 18.9711 12.3184C18.9711 12.3325 18.9711 12.3491 18.9711 12.3684C18.9711 12.4176 18.9727 12.4834 18.9759 12.5658C18.9791 12.6483 18.9871 12.7483 19 12.8658Z" fill="#CAD9E4"/>
<path d="M25.4359 9.06082C25.4539 9.27013 25.4699 9.49 25.484 9.72042C25.49 9.81893 25.496 9.92446 25.502 10.037C25.508 10.1496 25.513 10.2675 25.517 10.3906C25.521 10.512 25.524 10.6368 25.5261 10.7652C25.5301 10.8919 25.5321 11.0185 25.5321 11.1452C25.5321 11.3932 25.514 11.6289 25.478 11.8523C25.4419 12.0757 25.3828 12.2727 25.3006 12.4433C25.2184 12.6139 25.1102 12.7493 24.976 12.8496C24.8417 12.9499 24.6764 13 24.48 13C24.476 13 24.4579 12.9991 24.4259 12.9974C24.3958 12.9956 24.3567 12.9894 24.3086 12.9789C24.2605 12.9683 24.2064 12.9516 24.1463 12.9288C24.0882 12.9059 24.0291 12.8734 23.9689 12.8311C23.9088 12.7889 23.8517 12.7353 23.7976 12.6702C23.7435 12.6034 23.6984 12.5224 23.6623 12.4275C23.6202 12.5172 23.5701 12.5919 23.512 12.6517C23.4539 12.7115 23.3938 12.7617 23.3317 12.8021C23.2695 12.8408 23.2064 12.8707 23.1423 12.8918C23.0802 12.9129 23.024 12.9279 22.9739 12.9367C22.9238 12.9455 22.8818 12.9507 22.8477 12.9525C22.8136 12.9543 22.7936 12.9551 22.7876 12.9551C22.6673 12.9551 22.5641 12.9305 22.478 12.8813C22.3938 12.8338 22.3216 12.7678 22.2615 12.6834C22.2034 12.5972 22.1573 12.4969 22.1232 12.3826C22.0892 12.2665 22.0621 12.1416 22.0421 12.0079C22.024 11.8725 22.012 11.7309 22.006 11.5832C22.002 11.4354 22 11.2877 22 11.1399C22 11.0062 22.001 10.8734 22.003 10.7415C22.005 10.6078 22.007 10.4785 22.009 10.3536C22.013 10.2288 22.017 10.1092 22.021 9.99482C22.0271 9.87873 22.0321 9.77143 22.0361 9.67293C22.0461 9.44075 22.0581 9.22176 22.0721 9.01596L22.9529 9.03707C22.9148 9.24111 22.8808 9.4557 22.8507 9.68085C22.8387 9.77759 22.8267 9.88137 22.8146 9.99218C22.8026 10.103 22.7916 10.2191 22.7816 10.3405C22.7735 10.4601 22.7665 10.5841 22.7605 10.7125C22.7545 10.8391 22.7515 10.9658 22.7515 11.0924C22.7515 11.1892 22.7515 11.2868 22.7515 11.3853C22.7535 11.4838 22.7565 11.5796 22.7605 11.6729C22.7665 11.7643 22.7745 11.8505 22.7846 11.9314C22.7946 12.0106 22.8086 12.0809 22.8267 12.1425C22.8467 12.2023 22.8707 12.2498 22.8988 12.285C22.9289 12.3184 22.9659 12.3351 23.01 12.3351C23.0521 12.3351 23.0912 12.3122 23.1273 12.2665C23.1653 12.2208 23.1984 12.161 23.2265 12.0871C23.2565 12.0115 23.2826 11.927 23.3046 11.8338C23.3287 11.7388 23.3477 11.6438 23.3617 11.5489C23.3778 11.4521 23.3898 11.3589 23.3978 11.2692C23.4058 11.1795 23.4098 11.1021 23.4098 11.037C23.4098 11.0159 23.4108 10.9886 23.4128 10.9552C23.4128 10.9253 23.4128 10.8875 23.4128 10.8418C23.4148 10.7943 23.4158 10.7371 23.4158 10.6703C23.4158 10.5366 23.4138 10.3563 23.4098 10.1294C23.4058 9.90072 23.3998 9.61489 23.3918 9.27189L24.1553 9.29828C24.1373 9.58147 24.1222 9.82244 24.1102 10.0212C24.0982 10.22 24.0882 10.3862 24.0802 10.5199C24.0721 10.6518 24.0661 10.7582 24.0621 10.8391C24.0601 10.9183 24.0581 10.9816 24.0561 11.0291C24.0561 11.0748 24.0561 11.11 24.0561 11.1346C24.0561 11.1575 24.0561 11.1795 24.0561 11.2006C24.0561 11.2762 24.0591 11.358 24.0651 11.446C24.0731 11.5322 24.0842 11.6183 24.0982 11.7045C24.1142 11.7907 24.1333 11.8743 24.1553 11.9552C24.1794 12.0343 24.2054 12.1047 24.2335 12.1663C24.2635 12.2261 24.2966 12.2744 24.3327 12.3114C24.3707 12.3483 24.4118 12.3668 24.4559 12.3668C24.524 12.3668 24.5782 12.3334 24.6182 12.2665C24.6603 12.1997 24.6914 12.1091 24.7114 11.9948C24.7335 11.8787 24.7475 11.745 24.7535 11.5937C24.7595 11.4407 24.7625 11.2789 24.7625 11.1082C24.7625 10.8426 24.7555 10.5973 24.7415 10.3721C24.7295 10.147 24.7134 9.94733 24.6934 9.77319C24.6733 9.5973 24.6523 9.44779 24.6303 9.32466C24.6102 9.19977 24.5932 9.10567 24.5792 9.04235L25.4359 9.06082Z" fill="#CAD9E4"/>
<path d="M28.1202 12.876C27.9579 12.8725 27.8066 12.8698 27.6663 12.8681C27.5281 12.8681 27.3968 12.8681 27.2725 12.8681C27.0301 12.8681 26.8267 12.8698 26.6623 12.8734C26.5 12.8786 26.3677 12.883 26.2655 12.8865C26.1453 12.8918 26.0501 12.8971 25.98 12.9024C25.994 12.7845 26.006 12.6658 26.016 12.5462C26.0281 12.4266 26.0381 12.3087 26.0461 12.1926C26.0541 12.0765 26.0611 11.9649 26.0671 11.8576C26.0731 11.7503 26.0782 11.6491 26.0822 11.5541C26.0902 11.3325 26.0952 11.1206 26.0972 10.9183C26.0952 10.7072 26.0902 10.4908 26.0822 10.2692C26.0782 10.1742 26.0731 10.0749 26.0671 9.97108C26.0611 9.86554 26.0541 9.75824 26.0461 9.64919C26.0381 9.54013 26.0281 9.43108 26.016 9.32202C26.006 9.21121 25.994 9.10391 25.98 9.00013C26.2305 9.00893 26.4539 9.01596 26.6503 9.02124C26.8487 9.02476 27.0251 9.02652 27.1794 9.02652C27.3317 9.02652 27.4629 9.02564 27.5731 9.02388C27.6834 9.02036 27.7735 9.01684 27.8437 9.01332C27.9259 9.00981 27.994 9.00541 28.0481 9.00013C28.0481 8.99837 28.0481 9.0142 28.0481 9.04762C28.0481 9.08104 28.0491 9.12502 28.0511 9.17955C28.0531 9.23407 28.0561 9.29564 28.0601 9.36424C28.0661 9.43284 28.0741 9.50231 28.0842 9.57267C27.8517 9.55332 27.6483 9.54101 27.4739 9.53573C27.2996 9.5287 27.1503 9.52518 27.0261 9.52518C26.9739 9.52518 26.9279 9.52518 26.8878 9.52518C26.8497 9.52518 26.8136 9.52694 26.7796 9.53046C26.7756 9.7257 26.7725 9.90951 26.7705 10.0819C26.7685 10.2525 26.7675 10.4143 26.7675 10.5674C26.9078 10.5638 27.0331 10.5594 27.1433 10.5542C27.2535 10.5471 27.3477 10.5392 27.4259 10.5304C27.516 10.5216 27.5962 10.512 27.6663 10.5014C27.6643 10.5137 27.6633 10.5278 27.6633 10.5436C27.6613 10.5577 27.6603 10.5744 27.6603 10.5937C27.6603 10.6131 27.6603 10.6351 27.6603 10.6597C27.6603 10.716 27.6623 10.7837 27.6663 10.8629C27.6703 10.9403 27.6784 11.0238 27.6904 11.1135C27.4739 11.0889 27.2876 11.0739 27.1313 11.0687C26.975 11.0616 26.8537 11.0581 26.7675 11.0581C26.7675 11.241 26.7685 11.4046 26.7705 11.5489C26.7725 11.6913 26.7745 11.8171 26.7766 11.9262C26.7806 12.0352 26.7836 12.1284 26.7856 12.2058C26.7896 12.2832 26.7936 12.3474 26.7976 12.3984C27.002 12.3949 27.1844 12.3861 27.3447 12.3721C27.505 12.358 27.6403 12.3439 27.7505 12.3298C27.8607 12.314 27.9449 12.2999 28.003 12.2876C28.0611 12.2753 28.0902 12.2674 28.0902 12.2639C28.0882 12.2727 28.0872 12.2823 28.0872 12.2929C28.0852 12.3017 28.0842 12.3131 28.0842 12.3272C28.0842 12.3413 28.0842 12.358 28.0842 12.3773C28.0842 12.4266 28.0862 12.4925 28.0902 12.5752C28.0942 12.6579 28.1042 12.7581 28.1202 12.876Z" fill="#CAD9E4"/>
<path d="M31 11.0053C31 11.2921 30.9689 11.5401 30.9068 11.7494C30.8467 11.9569 30.7685 12.1346 30.6723 12.2823C30.5762 12.4283 30.4679 12.5471 30.3477 12.6385C30.2275 12.73 30.1072 12.8004 29.987 12.8496C29.8667 12.9006 29.7535 12.9349 29.6473 12.9525C29.5411 12.9719 29.4539 12.9815 29.3858 12.9815C29.3697 12.9815 29.3337 12.9807 29.2776 12.9789C29.2234 12.9771 29.1563 12.9727 29.0762 12.9657C28.996 12.9604 28.9048 12.9516 28.8026 12.9393C28.7024 12.927 28.5972 12.9094 28.487 12.8865C28.489 12.5383 28.491 12.2366 28.493 11.9816C28.497 11.7248 28.5 11.504 28.502 11.3193C28.504 11.1346 28.506 10.9798 28.508 10.855C28.51 10.7301 28.511 10.6228 28.511 10.5331C28.513 10.4434 28.514 10.3668 28.514 10.3035C28.516 10.2384 28.517 10.1751 28.517 10.1136C28.517 10.0168 28.516 9.91743 28.514 9.81541C28.512 9.71163 28.508 9.61137 28.502 9.51463C28.496 9.41788 28.488 9.3273 28.478 9.24287C28.4679 9.15844 28.4549 9.08632 28.4389 9.02652C28.5952 9.01772 28.7375 9.01244 28.8657 9.01069C28.996 9.00717 29.1082 9.00541 29.2024 9.00541C29.4389 9.00541 29.6473 9.03091 29.8277 9.08192C30.008 9.13117 30.1643 9.20065 30.2966 9.29036C30.4309 9.37831 30.5421 9.48472 30.6303 9.60961C30.7204 9.73274 30.7926 9.86818 30.8467 10.0159C30.9028 10.1637 30.9419 10.322 30.9639 10.4908C30.988 10.6579 31 10.8294 31 11.0053ZM30.2184 10.9236C30.2184 10.6122 30.2014 10.3589 30.1673 10.1637C30.1353 9.96668 30.0822 9.81365 30.008 9.70459C29.9359 9.59554 29.8407 9.52166 29.7224 9.48297C29.6062 9.44251 29.4649 9.42228 29.2986 9.42228H29.2084L29.2445 12.5224C29.2846 12.5365 29.3216 12.5462 29.3557 12.5515C29.3918 12.555 29.4269 12.5567 29.4609 12.5567C29.5952 12.5567 29.7094 12.5295 29.8036 12.475C29.8998 12.4187 29.978 12.3272 30.0381 12.2006C30.1002 12.0722 30.1453 11.9042 30.1733 11.6966C30.2034 11.4873 30.2184 11.2296 30.2184 10.9236Z" fill="#CAD9E4"/>
</svg>
