<svg width="32" height="34" viewBox="0 0 32 34" fill="none" xmlns="http://www.w3.org/2000/svg">
<path fill-rule="evenodd" clip-rule="evenodd" d="M16.8388 0.521629C16.2116 -0.173877 15.1237 -0.173875 14.4965 0.52163L0.412123 16.1393C-0.507905 17.1595 0.212819 18.7919 1.58326 18.7919H3.99066V32.0179C3.99066 32.8944 4.69812 33.605 5.57081 33.605H25.7645C26.6372 33.605 27.3446 32.8944 27.3446 32.0179V18.7919H29.752C31.1225 18.7919 31.8432 17.1595 30.9232 16.1393L26.5482 11.288V6.88854C26.5482 6.00649 25.8267 5.30142 24.9595 5.30142C24.0924 5.30142 23.3709 6.00649 23.3709 6.88854V7.76485L16.8388 0.521629ZM18.9596 21.7016C18.9596 21.4094 19.1954 21.1726 19.4863 21.1726H23.9634C24.2543 21.1726 24.4902 21.4094 24.4902 21.7016V30.9598C24.4902 31.252 24.2543 31.4888 23.9634 31.4888H19.4863C19.1954 31.4888 18.9596 31.252 18.9596 30.9598V21.7016Z" fill="#CAD9E4"/>
</svg>
