<svg width="33" height="35" viewBox="0 0 33 35" fill="none" xmlns="http://www.w3.org/2000/svg">
<path fill-rule="evenodd" clip-rule="evenodd" d="M16.4171 1.25388C16.2034 1.01794 15.8327 1.01794 15.619 1.25388L1.21949 17.1498C0.905962 17.4959 1.15155 18.0498 1.61856 18.0498H5.15682V32.5882C5.15682 32.8856 5.39789 33.1267 5.69528 33.1267H26.3408C26.6381 33.1267 26.8792 32.8856 26.8792 32.5882V18.0498H30.4175C30.8845 18.0498 31.1301 17.4959 30.8165 17.1498L26.065 11.9044V7.01129C26.065 6.71957 25.8208 6.47283 25.5177 6.47283C25.2147 6.47283 24.9705 6.71957 24.9705 7.01129V10.6962L16.4171 1.25388ZM14.8208 0.53088C15.462 -0.176958 16.574 -0.176962 17.2152 0.530879L23.8936 7.90329V7.01129C23.8936 6.11348 24.6313 5.39591 25.5177 5.39591C26.4042 5.39591 27.1419 6.11349 27.1419 7.01129V11.4892L31.6147 16.4268C32.5553 17.4651 31.8185 19.1267 30.4175 19.1267H27.9562V32.5882C27.9562 33.4804 27.2329 34.2036 26.3408 34.2036H5.69528C4.80312 34.2036 4.07989 33.4804 4.07989 32.5882V19.1267H1.61856C0.217543 19.1267 -0.519247 17.4651 0.421349 16.4268L14.8208 0.53088Z" fill="#CAD9E4"/>
<path fill-rule="evenodd" clip-rule="evenodd" d="M18.7366 22.8959C18.7366 22.0037 19.4598 21.2805 20.352 21.2805H23.6265C24.5187 21.2805 25.2419 22.0037 25.2419 22.8959V30.1651C25.2419 31.0573 24.5187 31.7805 23.6265 31.7805H20.352C19.4598 31.7805 18.7366 31.0573 18.7366 30.1651V22.8959ZM20.352 22.3574C20.0546 22.3574 19.8135 22.5985 19.8135 22.8959V30.1651C19.8135 30.4625 20.0546 30.7036 20.352 30.7036H23.6265C23.9239 30.7036 24.165 30.4625 24.165 30.1651V22.8959C24.165 22.5985 23.9239 22.3574 23.6265 22.3574H20.352Z" fill="#CAD9E4"/>
</svg>
