<svg width="37" height="33" viewBox="0 0 37 33" fill="none" xmlns="http://www.w3.org/2000/svg">
<path fill-rule="evenodd" clip-rule="evenodd" d="M8.31552 18.9499C8.54259 18.0357 8.48066 16.8599 8.01344 15.6633C7.54623 14.4668 6.79494 13.5602 6.0085 13.0418C5.21935 12.5216 4.48272 12.4367 3.91586 12.6581C3.34899 12.8794 2.86481 13.441 2.63696 14.3583C2.40989 15.2725 2.47183 16.4483 2.93904 17.6448C3.40626 18.8413 4.15754 19.748 4.94399 20.2664C5.73314 20.7866 6.46976 20.8715 7.03663 20.6501C7.6035 20.4288 8.08767 19.8671 8.31552 18.9499ZM7.42379 21.6416C9.37264 20.8806 10.0805 18.0307 9.00494 15.2762C7.92933 12.5217 5.47754 10.9056 3.52869 11.6666C1.57985 12.4276 0.871948 15.2775 1.94755 18.032C3.02315 20.7865 5.47495 22.4026 7.42379 21.6416Z" fill="#CAD9E4"/>
<path fill-rule="evenodd" clip-rule="evenodd" d="M32.4473 20.3155C33.2166 19.692 33.9107 18.6664 34.2822 17.368C34.6538 16.0696 34.6074 14.832 34.2844 13.896C33.9601 12.9562 33.4018 12.414 32.7886 12.2385C32.1754 12.063 31.4148 12.2278 30.6424 12.8538C29.8731 13.4772 29.1791 14.5028 28.8075 15.8012C28.4359 17.0996 28.4823 18.3372 28.8053 19.2732C29.1296 20.213 29.6879 20.7553 30.3011 20.9307C30.9143 21.1062 31.675 20.9414 32.4473 20.3155ZM30.0083 21.9541C32.0852 22.5484 34.4569 20.6263 35.3056 17.6608C36.1542 14.6954 35.1584 11.8096 33.0815 11.2152C31.0045 10.6208 28.6328 12.5429 27.7842 15.5084C26.9355 18.4738 27.9313 21.3597 30.0083 21.9541Z" fill="#CAD9E4"/>
<path fill-rule="evenodd" clip-rule="evenodd" d="M26.1081 11.94C26.9511 11.0839 27.6462 9.75987 27.9265 8.15997C28.2067 6.56006 28.0029 5.07863 27.5011 3.98692C26.9971 2.89037 26.2498 2.28246 25.4597 2.14407C24.6696 2.00569 23.7602 2.32344 22.9135 3.18341C22.0705 4.03958 21.3754 5.36357 21.0952 6.96347C20.815 8.56338 21.0187 10.0448 21.5205 11.1365C22.0246 12.2331 22.7718 12.841 23.5619 12.9794C24.352 13.1177 25.2614 12.8 26.1081 11.94ZM23.3783 14.0278C25.8437 14.4596 28.3494 11.9147 28.9749 8.3436C29.6004 4.77248 28.1088 1.52745 25.6433 1.09563C23.1779 0.663811 20.6722 3.20872 20.0467 6.77984C19.4213 10.351 20.9128 13.596 23.3783 14.0278Z" fill="#CAD9E4"/>
<path fill-rule="evenodd" clip-rule="evenodd" d="M15.6048 11.1482C16.1131 10.014 16.3084 8.48181 16.0034 6.83359C15.6984 5.18538 14.9677 3.82452 14.0873 2.94728C13.2031 2.06627 12.2549 1.74246 11.4309 1.89493C10.6069 2.04741 9.83745 2.68906 9.32704 3.82814C8.8188 4.96236 8.6235 6.49456 8.9285 8.14277C9.23349 9.79099 9.96414 11.1518 10.8446 12.0291C11.7288 12.9101 12.677 13.2339 13.5009 13.0814C14.3249 12.929 15.0944 12.2873 15.6048 11.1482ZM13.6946 14.1281C16.2263 13.6596 17.7286 10.307 17.05 6.63992C16.3714 2.97281 13.769 0.379815 11.2372 0.848299C8.70553 1.31678 7.20328 4.66934 7.88186 8.33645C8.56045 12.0036 11.1629 14.5966 13.6946 14.1281Z" fill="#CAD9E4"/>
<path fill-rule="evenodd" clip-rule="evenodd" d="M18.2861 13.7085L18.3174 13.7097C20.7496 13.807 22.3801 14.4333 23.6424 15.6838C24.8461 16.8763 25.6677 18.597 26.5939 20.7574C26.6269 20.7837 26.6667 20.8157 26.7128 20.853C26.8558 20.969 27.0589 21.1367 27.3011 21.3454C27.7847 21.762 28.4284 22.3455 29.0634 23.0091C29.6956 23.6698 30.3339 24.4252 30.795 25.186C31.2455 25.9294 31.5821 26.7671 31.4704 27.5624C31.2731 28.9673 30.2767 30.2968 29.0362 31.2382C27.7909 32.1831 26.2009 32.8134 24.7 32.7182C23.3362 32.6317 21.9207 32.4304 20.7516 32.2533C20.5728 32.2262 20.4004 32.1998 20.2349 32.1744C19.8552 32.1162 19.5119 32.0636 19.212 32.0215C18.7722 31.9597 18.4667 31.9267 18.2962 31.9267C18.1248 31.9267 17.8077 31.9599 17.3614 32.0216C16.9625 32.0768 16.489 32.1503 15.9733 32.2305C15.9254 32.2379 15.8771 32.2454 15.8284 32.253C14.6934 32.4292 13.3772 32.6307 12.3001 32.7175C11.0973 32.8144 9.60772 32.3591 8.35511 31.4962C7.09357 30.6271 6.0056 29.2983 5.69493 27.5832L5.69451 27.5809C5.51312 26.5533 6.05847 25.5401 6.87206 24.5028C7.61132 23.5602 8.67447 22.4756 9.92943 21.1953C10.0641 21.0579 10.201 20.9183 10.3399 20.7763C11.6576 18.2268 12.763 16.5234 13.9749 15.4288C15.2283 14.2966 16.5638 13.8426 18.2548 13.7109L18.2861 13.7085ZM25.8324 21.5124L25.723 21.4278L25.6686 21.3005C24.7083 19.0534 23.9493 17.4861 22.8932 16.44C21.8774 15.4336 20.539 14.8686 18.3063 14.7746C16.8075 14.8955 15.7211 15.2857 14.6883 16.2186C13.618 17.1854 12.5758 18.7605 11.2493 21.3351L11.2126 21.4063L11.1567 21.4635C10.9997 21.624 10.8461 21.7807 10.696 21.9339C9.42761 23.2282 8.40991 24.2668 7.70957 25.1597C6.9113 26.1774 6.64844 26.8588 6.74251 27.3947C6.99079 28.7631 7.86806 29.8681 8.95895 30.6196C10.0591 31.3775 11.3096 31.7295 12.2146 31.6565C13.2454 31.5735 14.5214 31.3787 15.6651 31.2012C15.7143 31.1935 15.7632 31.1859 15.8119 31.1784C16.3248 31.0987 16.8073 31.0237 17.2156 30.9672C17.6524 30.9069 18.0403 30.8623 18.2962 30.8623C18.5529 30.8623 18.931 30.9071 19.3601 30.9674C19.6669 31.0105 20.0208 31.0647 20.4041 31.1235C20.5682 31.1486 20.7376 31.1746 20.911 31.2009C22.0776 31.3776 23.4536 31.5726 24.7674 31.6559C25.9441 31.7305 27.288 31.2286 28.3928 30.3903C29.5022 29.5484 30.2718 28.4436 30.4164 27.4143C30.4756 26.9925 30.2995 26.422 29.8847 25.7377C29.4806 25.0709 28.9012 24.3792 28.2943 23.7449C27.6902 23.1136 27.0735 22.5542 26.6064 22.1518C26.3733 21.9509 26.1784 21.79 26.0425 21.6798C25.9745 21.6247 25.9213 21.5823 25.8854 21.554C25.8675 21.5398 25.8539 21.5291 25.845 21.5222L25.8351 21.5145L25.8324 21.5124Z" fill="#CAD9E4"/>
</svg>
