<svg width="30" height="28" viewBox="0 0 30 28" fill="none" xmlns="http://www.w3.org/2000/svg">
<path d="M6.6386 12.7176C7.58312 15.1364 6.96149 17.639 5.25015 18.3073C3.5388 18.9755 1.3858 17.5564 0.441274 15.1376C-0.503248 12.7187 0.118383 10.2161 1.82973 9.54788C3.54107 8.87962 5.69408 10.2987 6.6386 12.7176Z" fill="#CAD9E4"/>
<path d="M29.7341 14.8118C28.9889 17.4159 26.9062 19.1038 25.0824 18.5819C23.2585 18.0599 22.3841 15.5258 23.1293 12.9217C23.8745 10.3176 25.9572 8.62974 27.7811 9.15169C29.6049 9.67363 30.4793 12.2078 29.7341 14.8118Z" fill="#CAD9E4"/>
<path d="M24.1744 6.62992C23.6251 9.76584 21.4248 12.0006 19.2598 11.6214C17.0948 11.2422 15.785 8.39265 16.3343 5.25672C16.8835 2.1208 19.0838 -0.113965 21.2488 0.265232C23.4138 0.644428 24.7236 3.49399 24.1744 6.62992Z" fill="#CAD9E4"/>
<path d="M13.7036 5.13384C14.2995 8.35405 12.9803 11.298 10.7571 11.7094C8.53396 12.1208 6.24866 9.84383 5.65277 6.62362C5.05688 3.40341 6.37606 0.459418 8.59924 0.0480273C10.8224 -0.363364 13.1077 1.91363 13.7036 5.13384Z" fill="#CAD9E4"/>
<path d="M8.19427 17.8241C5.61121 20.4649 3.94972 22.0684 4.19211 23.4415C4.68266 26.1497 7.64396 27.7167 9.49495 27.5676C11.3459 27.4184 14.0474 26.8716 14.7978 26.8716C15.5482 26.8716 18.0996 27.4184 20.4508 27.5676C22.8021 27.7167 25.6036 25.5791 25.9038 23.4415C26.2039 21.3039 21.7015 17.8241 21.7015 17.8241C20.0256 13.9022 18.9108 11.9735 14.7978 11.809C11.9825 12.0283 10.5305 13.2897 8.19427 17.8241Z" fill="#CAD9E4"/>
</svg>
