<svg width="80" height="54" viewBox="0 0 80 54" fill="none" xmlns="http://www.w3.org/2000/svg">
<g clip-path="url(#clip0)">
<path d="M0.326134 33.941C0.339178 33.6084 1.97622 33.9345 2.94149 33.1257C4.96334 31.4495 1.49359 27.021 2.54365 21.6468C3.28064 17.9032 6.17645 13.8399 9.58098 13.1812C11.1919 12.8681 12.1116 13.6703 14.9095 13.1159C16.2922 12.842 16.7553 12.529 18.6271 12.1441C18.6271 12.1441 20.4598 11.7659 22.6513 11.6419C27.3537 11.3745 30.6539 12.9138 36.6151 13.2203C39.7326 13.3768 42.1654 13.5007 45.1981 12.5159C47.7874 11.6746 49.5484 10.4354 52.7246 8.21133C56.5661 5.51118 58.5032 4.18067 60.199 2.68711C60.5185 2.40666 61.1903 1.80011 62.2469 1.27834C63.8839 0.46308 65.4101 0.358727 67.1776 0.33916C69.1473 0.319594 71.7952 0.397859 74.965 0.808751C76.5303 0.74353 78.0956 0.671787 79.6609 0.606566C78.5195 1.42183 77.3781 2.23709 76.2368 3.05887C75.4998 5.48509 75.2519 7.48737 75.1606 8.86354C74.9193 12.5877 75.6367 14.7856 74.1367 17.2509C73.3475 18.5554 72.5453 18.9206 72.1083 19.0641C70.98 19.4293 69.4016 19.175 68.7168 18.2227C67.8624 17.0357 69.1603 15.8422 68.6842 13.5594C68.3255 11.8572 67.0602 9.96577 65.8862 9.97881C64.9992 9.98534 64.1187 11.068 62.6121 15.1378C61.5621 17.9684 60.3359 21.9142 59.488 26.8841C62.3056 27.458 64.5296 28.2211 66.0623 28.8277C68.9451 29.969 69.7408 30.693 70.0538 31.58C70.406 32.5713 70.0343 33.4649 69.6169 34.5997C67.1972 41.1805 68.2081 42.0936 66.3623 44.0959C65.6319 44.8851 64.1122 46.2221 61.2294 46.8808C61.2621 45.6155 61.2947 44.3502 61.3273 43.0915C61.8882 43.098 62.7556 43.0263 63.5774 42.5241C64.2361 42.1197 64.9796 41.3827 65.7949 38.663C66.2058 37.2999 66.6689 35.3041 66.7993 32.7931C65.0514 32.9431 62.5926 32.9692 59.7555 32.3887C57.1597 31.8604 55.0726 30.993 53.579 30.243C52.4964 32.1278 51.5637 33.6149 50.9311 34.6062C49.6527 36.602 49.2157 37.1368 48.3157 38.7021C48.0939 39.0869 47.2265 40.6 46.2678 42.6936C45.5438 44.2785 44.709 46.3199 43.9524 48.7657C44.272 49.4244 44.6959 50.1875 45.2634 50.9832C45.9156 51.9028 46.5873 52.6268 47.1743 53.1877C45.8503 53.129 44.5198 53.0703 43.1959 53.0116C43.1632 52.5616 43.0654 51.9354 42.7719 51.2376C42.2958 50.1093 41.5523 49.4179 41.1284 49.0788C41.5914 48.1852 42.1915 46.933 42.8045 45.4003C43.0524 44.7742 43.8611 42.6936 44.7807 38.8913C45.296 36.7651 45.883 33.9671 46.333 30.6147C43.7959 30.5691 41.2327 30.5104 38.65 30.4386C35.5128 30.3538 32.4083 30.243 29.3364 30.1256C29.1864 31.1561 28.919 32.6953 28.4429 34.5215C27.3537 38.6825 26.6819 38.5586 26.6884 40.0457C26.7015 42.9741 29.3103 43.9785 33.2627 49.8353C34.2671 51.3289 34.9976 52.5942 35.4346 53.3768C34.4106 53.3246 33.3931 53.2725 32.3692 53.2203C32.0822 52.555 31.6648 51.6485 31.0908 50.6049C30.3147 49.1766 28.919 46.6591 26.4015 44.0959C25.371 43.0458 23.8578 41.6958 21.8099 40.3979C22.1751 39.7326 23.5187 37.0977 22.5143 34.2736C21.9208 32.617 20.375 30.4778 18.8358 30.6212C17.8053 30.7191 17.6162 31.8409 16.2009 33.4127C12.8746 37.0977 10.7941 36.5368 8.89616 39.5696C8.76572 39.7783 8.92877 39.5369 7.10911 44.5459C6.04601 47.4809 5.70034 48.3679 5.84382 49.6201C6.05253 51.4072 7.11563 52.7442 7.91133 53.5334C6.99171 53.5399 6.07862 53.5464 5.159 53.5529C5.00247 52.9594 4.82638 52.3529 4.63072 51.7267C4.31765 50.7289 3.98503 49.7897 3.63936 48.9092C5.09378 46.6134 5.6286 44.6177 5.8373 43.1893C6.27428 40.1957 5.45902 38.6108 6.73735 36.3281C7.32434 35.2845 7.74175 35.1671 8.64833 33.5757C9.57446 31.9517 9.9984 30.5625 10.1875 29.9234C11.6811 24.8883 9.74404 22.3773 11.4659 18.5097C11.8181 17.714 12.4638 16.5531 13.7095 15.3269C13.0312 14.9878 12.0007 14.6225 10.9637 14.9356C8.96139 15.5356 8.23091 18.2684 7.74828 20.1859C6.68517 24.3926 8.00916 25.3123 6.93301 29.0951C6.55473 30.4321 5.53729 34.0062 3.13063 34.5932C1.81969 34.8997 0.31309 34.2671 0.326134 33.941Z" fill="white" stroke="white" stroke-miterlimit="10" stroke-linejoin="round"/>
</g>
<defs>
<clipPath id="clip0">
<rect width="80" height="53.866" fill="white"/>
</clipPath>
</defs>
</svg>
