<svg width="80" height="80" viewBox="0 0 80 80" fill="none" xmlns="http://www.w3.org/2000/svg">
<g clip-path="url(#clip0)">
<path d="M0.326134 46.941C0.339178 46.6084 1.97622 46.9345 2.94149 46.1257C4.96334 44.4495 1.49359 40.021 2.54365 34.6468C3.28064 30.9032 6.17645 26.8399 9.58098 26.1812C11.1919 25.8681 12.1116 26.6703 14.9095 26.1159C16.2922 25.842 16.7553 25.529 18.6271 25.1441C18.6271 25.1441 20.4598 24.7659 22.6513 24.6419C27.3537 24.3745 30.6539 25.9138 36.6151 26.2203C39.7326 26.3768 42.1654 26.5007 45.1981 25.5159C47.7874 24.6746 49.5484 23.4354 52.7246 21.2113C56.5661 18.5112 58.5032 17.1807 60.199 15.6871C60.5185 15.4067 61.1903 14.8001 62.2469 14.2783C63.8839 13.4631 65.4101 13.3587 67.1776 13.3392C69.1473 13.3196 71.7952 13.3979 74.965 13.8088C76.5303 13.7435 78.0956 13.6718 79.6609 13.6066C78.5195 14.4218 77.3781 15.2371 76.2368 16.0589C75.4998 18.4851 75.2519 20.4874 75.1606 21.8635C74.9193 25.5877 75.6367 27.7856 74.1367 30.2509C73.3475 31.5554 72.5453 31.9206 72.1083 32.0641C70.98 32.4293 69.4016 32.175 68.7168 31.2227C67.8624 30.0357 69.1603 28.8422 68.6842 26.5594C68.3255 24.8572 67.0602 22.9658 65.8862 22.9788C64.9992 22.9853 64.1187 24.068 62.6121 28.1378C61.5621 30.9684 60.3359 34.9142 59.488 39.8841C62.3056 40.458 64.5296 41.2211 66.0623 41.8277C68.9451 42.969 69.7408 43.693 70.0538 44.58C70.406 45.5713 70.0343 46.4649 69.6169 47.5997C67.1972 54.1805 68.2081 55.0936 66.3623 57.0959C65.6319 57.8851 64.1122 59.2221 61.2294 59.8808C61.2621 58.6155 61.2947 57.3502 61.3273 56.0915C61.8882 56.098 62.7556 56.0263 63.5774 55.5241C64.2361 55.1197 64.9796 54.3827 65.7949 51.663C66.2058 50.2999 66.6689 48.3041 66.7993 45.7931C65.0514 45.9431 62.5926 45.9692 59.7555 45.3887C57.1597 44.8604 55.0726 43.993 53.579 43.243C52.4964 45.1278 51.5637 46.6149 50.9311 47.6062C49.6527 49.602 49.2157 50.1368 48.3157 51.7021C48.0939 52.0869 47.2265 53.6 46.2678 55.6936C45.5438 57.2785 44.709 59.3199 43.9524 61.7657C44.272 62.4244 44.6959 63.1875 45.2634 63.9832C45.9156 64.9028 46.5873 65.6268 47.1743 66.1877C45.8503 66.129 44.5198 66.0703 43.1959 66.0116C43.1632 65.5616 43.0654 64.9354 42.7719 64.2376C42.2958 63.1093 41.5523 62.4179 41.1284 62.0788C41.5914 61.1852 42.1915 59.933 42.8045 58.4003C43.0524 57.7742 43.8611 55.6936 44.7807 51.8913C45.296 49.7651 45.883 46.9671 46.333 43.6147C43.7959 43.5691 41.2327 43.5104 38.65 43.4386C35.5128 43.3538 32.4083 43.243 29.3364 43.1256C29.1864 44.1561 28.919 45.6953 28.4429 47.5215C27.3537 51.6825 26.6819 51.5586 26.6884 53.0457C26.7015 55.9741 29.3103 56.9785 33.2627 62.8353C34.2671 64.3289 34.9976 65.5942 35.4346 66.3768C34.4106 66.3246 33.3931 66.2725 32.3692 66.2203C32.0822 65.555 31.6648 64.6485 31.0908 63.6049C30.3147 62.1766 28.919 59.6591 26.4015 57.0959C25.371 56.0458 23.8578 54.6958 21.8099 53.3979C22.1751 52.7326 23.5187 50.0977 22.5143 47.2736C21.9208 45.617 20.375 43.4778 18.8358 43.6212C17.8053 43.7191 17.6162 44.8409 16.2009 46.4127C12.8746 50.0977 10.7941 49.5368 8.89616 52.5696C8.76572 52.7783 8.92877 52.5369 7.10911 57.5459C6.04601 60.4809 5.70034 61.3679 5.84382 62.6201C6.05253 64.4072 7.11563 65.7442 7.91133 66.5334C6.99171 66.5399 6.07862 66.5464 5.159 66.5529C5.00247 65.9594 4.82638 65.3529 4.63072 64.7267C4.31765 63.7289 3.98503 62.7897 3.63936 61.9092C5.09378 59.6134 5.6286 57.6177 5.8373 56.1893C6.27428 53.1957 5.45902 51.6108 6.73735 49.3281C7.32434 48.2845 7.74175 48.1671 8.64833 46.5757C9.57446 44.9517 9.9984 43.5625 10.1875 42.9234C11.6811 37.8883 9.74404 35.3773 11.4659 31.5097C11.8181 30.714 12.4638 29.5531 13.7095 28.3269C13.0312 27.9878 12.0007 27.6225 10.9637 27.9356C8.96139 28.5356 8.23091 31.2684 7.74828 33.1859C6.68517 37.3926 8.00916 38.3123 6.93301 42.0951C6.55473 43.4321 5.53729 47.0062 3.13063 47.5932C1.81969 47.8997 0.31309 47.2671 0.326134 46.941Z" fill="#78CAD1" stroke="white" stroke-miterlimit="10" stroke-linejoin="round"/>
</g>
<defs>
<clipPath id="clip0">
<rect width="80" height="53.866" fill="white" transform="translate(0 13)"/>
</clipPath>
</defs>
</svg>
