<svg width="82" height="80" viewBox="0 0 82 80" fill="none" xmlns="http://www.w3.org/2000/svg">
<path d="M73.7104 40.8831C68.7197 41.4018 67.7588 47.0074 67.9022 49.7453C67.9739 51.6186 68.2034 55.9704 68.5476 58.3913C68.8918 60.8122 74.8577 67.0374 77.7977 69.8473H79.7338C81.7989 70.539 80.8811 72.1529 80.164 72.8734H76.0768C75.5031 72.297 74.2267 71.101 73.7104 70.9281C73.0651 70.7119 62.3091 62.0659 61.0184 60.769C60.5881 59.4721 57.5765 57.0944 57.1462 57.0944C56.716 57.0944 56.5009 57.7429 53.2741 57.5267C50.6926 57.3538 47.179 64.6597 45.7449 68.3343V69.8473C46.1034 69.9914 46.9496 70.4093 47.4658 70.9281C47.9821 71.4468 47.5375 72.4411 47.2507 72.8734H44.0239C43.1635 72.8734 42.8049 72.297 42.7332 72.0088V66.8212C43.7658 64.7462 44.1673 59.328 44.239 56.8783C43.3786 56.5901 41.0123 55.884 38.4308 55.3652C36.0645 56.2298 28.5353 56.2298 28.3202 56.446C28.5353 57.5267 24.6632 61.8497 22.7271 64.4435C20.791 67.0374 23.3724 68.5504 24.448 69.6312C25.5236 70.7119 24.2329 70.7119 27.2446 70.9281C29.6539 71.101 28.8221 73.0175 28.1051 73.9542H23.8027C22.0817 72.0088 18.3817 67.6426 17.3491 65.7405C16.0584 63.3628 17.134 60.769 17.3491 59.2559C17.5212 58.0455 17.134 57.7429 16.9189 57.7429C14.4091 58.4634 9.04548 59.9476 7.66871 60.1205C5.94775 60.3367 4.87215 65.3082 4.65703 67.0374C4.44191 68.7666 5.73263 68.5504 4.01168 70.0635C2.63491 71.2739 1.43024 69.5591 1 68.5504C1.21512 67.7579 1.64536 65.9134 1.64536 64.8759C1.64536 63.5789 3.79656 56.0136 5.51751 55.3652C7.23847 54.7167 10.8955 49.0968 10.8955 48.0161C10.8955 47.1514 11.8994 40.739 12.4013 37.6408C10.8955 35.4072 7.53965 29.8594 6.16289 25.5363C4.44193 20.1325 5.73265 13.4319 10.2502 9.75728C14.7677 6.08271 18.8549 9.10883 19.9305 10.4057C21.0061 11.7026 21.0061 16.458 18.8549 14.0803C16.7038 11.7027 11.3258 12.3511 10.8955 17.3226C10.2501 29.6432 14.9827 31.8047 16.7037 32.8855C18.4247 33.9662 24.6631 32.6693 29.1806 32.6693C33.6982 32.6693 51.5531 35.9116 54.995 36.1278C57.7485 36.3007 60.3013 34.3265 61.2335 33.3178C62.094 32.4532 64.03 30.724 64.8905 30.724C65.9661 30.724 68.3324 28.3463 69.8383 26.8333C71.0429 25.6228 71.6309 25.8966 71.7743 26.1848V30.0755C73.4953 30.2484 75.3597 32.5973 76.0767 33.7501C76.7221 34.6147 78.0989 36.4736 78.443 36.9924C78.7872 37.5111 77.2957 39.6582 76.507 40.6669C76.4353 40.739 75.7756 40.8831 73.7104 40.8831Z" fill="#78CAD1" stroke="white"/>
</svg>
