<svg width="80" height="80" viewBox="0 0 80 80" fill="none" xmlns="http://www.w3.org/2000/svg">
<g clip-path="url(#clip0)">
<path d="M4.38312 39.8413C1.90394 34.8592 -1.1623 27.735 0.848805 26.1008C3.55805 23.8992 14.1094 32.7727 17.608 35.8033C19.4287 33.2646 22.4593 29.7104 27.0963 26.6363C29.9841 24.7203 32.7369 23.4986 34.9821 22.7013C34.8948 20.9718 34.8552 18.5204 35.113 15.5851C35.3827 12.5149 35.5176 10.9798 36.1602 10.4919C37.4652 9.5002 41.1939 10.6347 51.9119 20.1349C55.8072 20.8132 63.6413 22.7489 71.0075 29.0083C75.4105 32.7529 78.1594 36.7791 79.8056 39.6985C78.3577 42.5109 75.9936 46.2396 72.2094 49.7818C64.7282 56.7791 56.2673 58.7505 52.4275 59.3891C41.1503 69.2503 37.2828 70.4244 35.9579 69.3931C35.3232 68.9012 35.2082 67.616 34.9781 65.0416C34.6925 61.8921 34.9186 59.2701 35.1765 57.4891C32.3561 56.2555 28.8337 54.407 25.1447 51.6343C21.6064 48.9726 18.9329 46.2317 16.9972 43.9429C15.0614 45.7081 3.78018 55.8905 0.947972 53.6612C-1.2694 51.9278 2.63778 43.4034 4.38312 39.8413Z" fill="#78CAD1" stroke="white" stroke-miterlimit="10" stroke-linejoin="round"/>
<path d="M61.3446 35.4859C59.2344 35.7755 57.4533 37.5724 57.3065 39.7105C57.1241 42.4038 59.5834 44.9028 62.3839 44.6926C64.8393 44.5101 66.9138 42.2967 66.7353 39.7422C66.5489 37.0211 63.8833 35.1369 61.3446 35.4859Z" fill="#78CAD1" stroke="white" stroke-miterlimit="10" stroke-linejoin="round"/>
</g>
<defs>
<clipPath id="clip0">
<rect width="80" height="59.9008" fill="white" transform="translate(0 10)"/>
</clipPath>
</defs>
</svg>
