<svg width="80" height="80" viewBox="0 0 80 80" fill="none" xmlns="http://www.w3.org/2000/svg">
<path d="M34.4941 55.0098C34.5579 51.2135 34.9886 48.2148 35.7861 46.0137C36.5837 43.8125 38.2106 41.3721 40.667 38.6924L46.9355 32.2324C49.6152 29.2018 50.9551 25.9479 50.9551 22.4707C50.9551 19.1211 50.0778 16.5052 48.3232 14.623C46.5687 12.709 44.0166 11.752 40.667 11.752C37.4131 11.752 34.7972 12.6133 32.8193 14.3359C30.8415 16.0586 29.8525 18.3714 29.8525 21.2744H21C21.0638 16.1064 22.8981 11.9434 26.5029 8.78516C30.1396 5.59505 34.861 4 40.667 4C46.6963 4 51.3857 5.62695 54.7354 8.88086C58.1169 12.1029 59.8076 16.5371 59.8076 22.1836C59.8076 27.7663 57.2236 33.2692 52.0557 38.6924L46.8398 43.8604C44.5111 46.4443 43.3467 50.1608 43.3467 55.0098H34.4941ZM34.1113 70.1787C34.1113 68.7432 34.542 67.5469 35.4033 66.5898C36.2965 65.6009 37.6045 65.1064 39.3271 65.1064C41.0498 65.1064 42.3577 65.6009 43.251 66.5898C44.1442 67.5469 44.5908 68.7432 44.5908 70.1787C44.5908 71.6143 44.1442 72.8105 43.251 73.7676C42.3577 74.6927 41.0498 75.1553 39.3271 75.1553C37.6045 75.1553 36.2965 74.6927 35.4033 73.7676C34.542 72.8105 34.1113 71.6143 34.1113 70.1787Z" fill="#61CB96"/>
</svg>
