<svg width="82" height="80" viewBox="0 0 82 80" fill="none" xmlns="http://www.w3.org/2000/svg">
<path d="M69.1625 10.1661C67.2313 9.68326 65.3404 10.3672 64.6363 10.7695C64.6363 10.4678 64.0328 10.1057 61.6189 11.0713C58.6014 12.2783 57.6962 15.8992 59.2049 16.5027C60.7136 17.1062 60.1102 17.4079 58.6014 19.8218C50.1526 27.9689 42.3073 26.7619 33.255 26.7619C24.2027 26.7619 22.6939 28.5724 19.9783 30.6846C3.38237 29.7794 4.58933 19.2184 2.17538 16.8044C-0.238566 14.3905 0.968409 23.4428 6.70154 30.0811C12.4347 36.7195 19.073 34.6073 19.073 35.5125C19.073 36.4177 18.7713 43.3578 19.9783 45.1683C21.1852 46.9788 22.0905 54.2206 22.0905 55.7293C22.0905 57.2381 23.2974 69.3078 27.5219 70.213C31.7463 71.1183 34.1602 69.3078 31.1428 67.4973C28.1253 65.6869 28.1253 63.5747 28.1253 58.1433C28.1253 52.7119 33.255 48.7892 33.255 45.7718C33.255 42.7544 34.1602 43.3578 36.5742 44.5648C38.9881 45.7718 47.7387 47.884 52.8683 48.7892C53.1701 62.9712 52.2648 63.2729 51.9631 65.3851C51.6614 67.4973 52.5666 69.9113 56.1875 70.213C59.8084 70.5148 60.1102 69.9113 60.1102 68.4026C60.1102 67.1956 58.2997 65.888 57.3945 65.3851V59.9538C57.3945 58.445 57.998 51.2032 61.0154 47.884C64.0328 44.5648 64.6363 38.2282 66.1451 35.5125C67.352 33.34 69.0619 25.9573 69.766 22.5375H75.8008C79.12 22.5375 83.3444 16.5027 79.4218 16.2009C75.4991 15.8992 74.2921 13.4852 73.3869 12.58C72.4817 11.6748 71.5764 10.7695 69.1625 10.1661Z" fill="#78CAD1" stroke="white"/>
</svg>
