<svg width="80" height="80" viewBox="0 0 80 80" fill="none" xmlns="http://www.w3.org/2000/svg">
<g clip-path="url(#clip0)">
<path d="M79.782 13.6775C78.1864 15.0872 76.5865 16.4968 74.991 17.9065C74.7774 18.9736 74.4591 20.2032 73.9839 21.5295C73.4739 22.9435 72.8941 24.1512 72.3448 25.1524C72.663 26.5226 74.7381 36.2541 68.2469 45.0721C61.7121 53.9517 51.7726 54.7334 50.3907 54.8168C50.5694 55.6073 50.831 56.8281 51.0707 58.3387C51.5241 61.1976 51.3279 61.4743 51.7552 62.1418C52.2783 62.9586 53.111 63.3889 57.7668 64.4912C59.4583 64.8908 60.8969 65.1982 61.9737 65.4222C61.9737 66.2083 61.9737 66.9987 61.9737 67.7848C60.9841 67.4467 59.5019 66.9768 57.6753 66.5113C53.8303 65.532 50.6304 64.7459 46.7418 65.1807C45.0329 65.3695 43.5987 65.7515 42.5175 66.1073C42.4173 65.5495 42.317 64.9874 42.2167 64.4297C43.8472 64.1355 45.2073 63.7842 46.2405 63.4812C47.7096 63.0508 48.0366 62.862 48.1979 62.5238C48.5728 61.7334 47.7532 60.7716 46.5151 58.7076C45.8612 57.6229 45.1681 56.3538 44.488 54.8958C42.7181 55.3042 40.8261 55.6687 38.8164 55.9542C33.7812 56.67 29.2082 56.7359 25.2847 56.5031C28.5804 53.3764 31.8805 50.2453 35.1762 47.1186C32.5431 45.6079 28.5194 43.6493 23.3229 42.4592C18.4578 41.3482 16.3435 41.7785 12.7644 40.7114C9.3989 39.7058 4.86945 37.4134 0.222291 31.6298C8.91501 32.3149 15.9468 32.8287 20.9078 33.1888C22.0543 33.2722 24.2079 33.4216 27.059 33.3249C28.2011 33.2854 30.7035 33.1932 33.585 32.7014C34.6313 32.5213 38.2148 31.867 43.4156 29.6976C47.0252 28.1913 52.2914 25.5872 58.1766 21.1167C59.0659 16.5276 62.2396 13.0495 66.1021 12.3513C68.9096 11.8419 71.2375 12.9529 72.1922 13.4843C74.7207 13.5502 77.2535 13.6116 79.782 13.6775Z" fill="#78CAD1" stroke="white" stroke-miterlimit="10" stroke-linejoin="round"/>
</g>
<defs>
<clipPath id="clip0">
<rect width="80" height="56" fill="white" transform="matrix(-1 0 0 1 80 12)"/>
</clipPath>
</defs>
</svg>
